
<svg width="992" height="38" viewBox="0 0 992 38" fill="none" xmlns="http://www.w3.org/2000/svg">
<g clip-path="url(#clip0_1848_84)">
<path d="M20.002 17.0239C20.4943 15.5457 20.3249 13.9272 19.5375 12.5831C18.3535 10.5211 15.9728 9.46063 13.6483 9.95962C12.6142 8.79447 11.1281 8.13182 9.57058 8.14171C7.1937 8.13597 5.08547 9.6661 4.35422 11.9278C2.8276 12.2405 1.50995 13.1963 0.738825 14.5506C-0.454396 16.6069 -0.182571 19.1985 1.41137 20.9625C0.919085 22.4406 1.0885 24.0591 1.8759 25.4032C3.05986 27.4652 5.44056 28.5257 7.76511 28.0267C8.79913 29.1919 10.2852 29.8545 11.8428 29.8446C14.2209 29.8507 16.3301 28.3196 17.0607 26.0563C18.5874 25.7436 19.905 24.7878 20.6761 23.4334C21.8681 21.3772 21.5956 18.7869 20.002 17.0239ZM11.8447 28.4255C10.8933 28.4268 9.97193 28.0937 9.24132 27.4843C9.27418 27.4665 9.33193 27.4346 9.36958 27.4116L13.6907 24.9154C13.9115 24.7897 14.0474 24.5546 14.0458 24.3006V18.2085L15.8723 19.2632C15.8918 19.2728 15.9052 19.2916 15.9077 19.3133V24.3587C15.9052 26.6019 14.0882 28.4204 11.8447 28.4255ZM3.10613 24.6933C2.62947 23.8699 2.45783 22.9051 2.62086 21.9678C2.65308 21.9869 2.70892 22.0214 2.74912 22.0443L7.07024 24.5405C7.28942 24.6688 7.56092 24.6688 7.78011 24.5405L13.0558 21.4943V23.6035C13.0571 23.6255 13.0472 23.6462 13.0296 23.6596L8.6613 26.1817C6.71642 27.3022 4.23107 26.6363 3.10613 24.6933ZM1.96937 15.2596C2.44379 14.4352 3.19322 13.8038 4.08623 13.4764C4.08623 13.5138 4.08399 13.5795 4.08399 13.6254V18.6175C4.0824 18.8714 4.21799 19.1063 4.43877 19.232L9.71446 22.2779L7.88794 23.3323C7.86976 23.3444 7.84647 23.3463 7.82637 23.3381L3.45771 20.8138C1.51601 19.6888 0.850172 17.2048 1.96937 15.2596ZM16.9759 18.7518L11.6999 15.7056L13.5264 14.6515C13.5446 14.6393 13.5679 14.6374 13.588 14.646L17.9566 17.1681C19.9021 18.2917 20.5683 20.78 19.4446 22.7252C18.9693 23.5483 18.2205 24.179 17.3281 24.5077V19.3663C17.3303 19.1126 17.1957 18.8778 16.9759 18.7518ZM18.7938 16.0157C18.7616 15.9959 18.7057 15.9621 18.6655 15.9391L14.3441 13.4429C14.1249 13.315 13.8537 13.315 13.6342 13.4429L8.35853 16.4892V14.38C8.35725 14.3579 8.36714 14.3372 8.38469 14.3238L12.753 11.8037C14.6992 10.6816 17.1865 11.3494 18.3085 13.2955C18.7826 14.118 18.9543 15.0803 18.7938 16.0157ZM7.36535 19.7753L5.53851 18.7205C5.51905 18.711 5.50565 18.6921 5.5031 18.6705V13.6254C5.50469 11.379 7.32675 9.5589 9.57345 9.5605C10.5236 9.56113 11.4434 9.89421 12.1733 10.502C12.1405 10.5199 12.083 10.5518 12.0451 10.5747L7.72395 13.0709C7.50318 13.1963 7.36726 13.4314 7.36886 13.6854L7.36535 19.7753ZM8.35757 17.6361L10.7073 16.2789L13.0571 17.6352V20.3486L10.7073 21.7049L8.35757 20.3486V17.6361Z" fill="#FAFAFA"/>
<path d="M51.4141 18.9931C51.4141 13.1958 56.1137 8.49609 61.9111 8.49609C66.1737 8.49609 69.8428 11.0368 71.4868 14.6864L57.6043 28.5689C57.0086 28.3005 56.4424 27.9782 55.912 27.6081L64.527 18.9931H61.9111L54.4886 26.4157C52.589 24.5161 51.4141 21.8918 51.4141 18.9931Z" fill="#FAFAFA"/>
<path d="M72.4076 18.9966L61.9141 29.49C67.7086 29.4881 72.4056 24.7911 72.4076 18.9966Z" fill="#FAFAFA"/>
<path fill-rule="evenodd" clip-rule="evenodd" d="M77.9736 11.687V26.028H79.9788V21.5827H82.9736C85.6964 21.555 87.9137 19.4956 87.9137 16.7932C87.9137 13.7955 85.7559 11.687 82.9847 11.687H77.9736ZM85.9944 16.66C85.9944 18.3401 84.6228 19.8167 82.9498 19.8255C82.4297 19.8253 81.9097 19.8254 81.3898 19.8255C80.9194 19.8256 80.449 19.8257 79.9788 19.8255V13.4558L82.935 13.4559C84.6145 13.4559 85.9944 14.8912 85.9944 16.66Z" fill="#FAFAFA"/>
<path d="M168.411 26.0284V11.6873L169.642 11.6871C170.016 11.687 170.268 11.687 170.427 11.6871V26.0284H168.411Z" fill="#FAFAFA"/>
<path d="M90.9696 26.028V11.6949C90.6139 11.6947 90.301 11.6948 89.7345 11.6948H88.9541V26.028H90.9696Z" fill="#FAFAFA"/>
<path fill-rule="evenodd" clip-rule="evenodd" d="M103.387 26.0282V15.2917H101.371V16.8033H101.332C100.499 15.5824 99.181 15.001 97.6114 15.001C94.4525 15.001 91.9912 17.4041 91.9912 20.8343C91.9912 23.9351 94.5493 26.2995 97.6887 26.2995C99.2198 26.2995 100.577 25.6406 101.332 24.3615H101.371V26.0282H103.387ZM97.6693 24.4584C95.654 24.4584 94.0067 22.6948 94.0067 20.6793C94.0067 18.5669 95.654 16.8421 97.6693 16.8421C99.8982 16.8421 101.41 18.5863 101.41 20.6793C101.41 22.7142 99.7627 24.4584 97.6693 24.4584Z" fill="#FAFAFA"/>
<path d="M114.632 26.0282V19.594C114.632 16.6289 112.733 15.001 110.155 15.001C108.915 15.001 107.81 15.408 107.016 16.4351H106.977V15.2917H104.962V26.0282H107.113V20.1561C107.113 18.1406 108.179 16.8421 109.942 16.8421C111.725 16.8421 112.616 17.908 112.616 20.1754V26.0282H114.632Z" fill="#FAFAFA"/>
<path fill-rule="evenodd" clip-rule="evenodd" d="M126.574 21.4552C126.621 21.1201 126.621 20.8305 126.621 20.5243C126.621 17.4429 124.218 15.001 121.059 15.001C118.21 15.001 115.652 17.3654 115.652 20.7568C115.652 23.625 118.094 26.2995 121.117 26.2995C123.423 26.2995 125.439 24.8654 126.272 22.6561H124.257C123.637 23.7995 122.455 24.4584 121.194 24.4584C119.563 24.4584 118.16 23.3366 117.681 21.5827H126.553C126.561 21.5417 126.568 21.4986 126.574 21.4552ZM117.684 19.8255C117.916 18.0676 119.517 16.8421 121.117 16.8421C122.792 16.8421 124.358 18.0851 124.589 19.8255H117.684Z" fill="#FAFAFA"/>
<path d="M141.286 15.2708H143.53C143.188 13.51 141.178 11.687 138.474 11.687C135.646 11.687 133.478 13.3042 133.478 15.7336C133.478 17.695 134.88 18.8983 137.144 19.5107L138.81 19.965C140.317 20.3641 141.484 20.8952 141.484 22.1477C141.484 23.5241 140.17 24.4326 138.36 24.4326C136.916 24.4326 135.686 23.8659 135.33 22.6807H133.09C133.458 24.8529 135.39 26.2976 138.374 26.2976C141.684 26.2976 143.59 24.5564 143.59 22.1683C143.59 19.6289 141.322 18.6092 139.533 18.1687L138.156 17.8109C137.055 17.5287 135.591 16.9586 135.598 15.6097C135.598 14.4123 136.692 13.4555 138.426 13.4555C139.91 13.4555 141 14.1615 141.286 15.2708Z" fill="#FAFAFA"/>
<path d="M155.053 22.6808C154.16 24.9804 152.154 26.2995 149.836 26.2995C146.755 26.2995 144.332 23.8188 144.332 20.7568C144.332 17.5204 146.677 15.001 149.817 15.001C152.184 15.001 154.351 16.4401 155.064 18.6472H152.792C152.185 17.5142 151.246 16.8421 149.875 16.8421C147.762 16.8421 146.348 18.4506 146.348 20.6405C146.348 22.7723 147.801 24.4584 149.836 24.4584C151.137 24.4584 152.195 23.8004 152.781 22.6808H155.053Z" fill="#FAFAFA"/>
<path fill-rule="evenodd" clip-rule="evenodd" d="M166.834 15.2917V26.0282H164.818V24.3615H164.779C164.023 25.6406 162.667 26.2995 161.136 26.2995C157.997 26.2995 155.438 23.9351 155.438 20.8343C155.438 17.4041 157.899 15.001 161.058 15.001C162.628 15.001 163.946 15.5824 164.779 16.8033H164.818V15.2917H166.834ZM157.454 20.6793C157.454 22.6948 159.101 24.4584 161.117 24.4584C163.21 24.4584 164.857 22.7142 164.857 20.6793C164.857 18.5863 163.345 16.8421 161.117 16.8421C159.101 16.8421 157.454 18.5669 157.454 20.6793Z" fill="#FAFAFA"/>
<path fill-rule="evenodd" clip-rule="evenodd" d="M182.375 21.3965C182.414 21.086 182.414 20.8127 182.414 20.5244C182.414 20.4762 182.413 20.4282 182.412 20.3804C182.402 19.993 182.355 19.6163 182.273 19.254C182.121 18.5874 181.853 17.9693 181.487 17.4226C180.505 15.9549 178.826 15.001 176.852 15.001C174.003 15.001 171.445 17.3654 171.445 20.7568C171.445 21.1154 171.483 21.4709 171.555 21.8185C172.064 24.2519 174.265 26.2995 176.91 26.2995C179.216 26.2995 181.232 24.8654 182.065 22.6561H180.049C179.972 22.799 179.885 22.9344 179.792 23.0618C179.133 23.9539 178.089 24.4584 176.987 24.4584C175.356 24.4584 173.952 23.3366 173.474 21.5827H182.346C182.349 21.5661 182.352 21.5492 182.355 21.532H182.356C182.363 21.486 182.369 21.4409 182.375 21.3965ZM173.506 19.643C173.821 17.9833 175.366 16.8421 176.91 16.8421C178.585 16.8421 180.15 18.0851 180.381 19.8255H173.477C173.485 19.764 173.495 19.7032 173.506 19.643Z" fill="#FAFAFA"/>
<path d="M130.209 15.2936H132.461V17.0522H130.209V23.0548C130.209 24.1085 130.72 24.402 131.291 24.4555C131.331 24.4566 131.366 24.4579 131.397 24.4596C131.744 24.4782 132.016 24.4253 132.182 24.3707C132.418 24.9067 132.738 25.3975 133.134 25.8288C132.436 26.2491 131.606 26.3286 130.98 26.2911C130.678 26.2753 130.384 26.2251 130.108 26.1402C128.874 25.7646 128.486 24.8787 128.347 24.5156L128.356 24.5153C128.25 24.2102 128.192 23.8656 128.194 23.4814V17.0522H126.61V15.2936H128.194V11.687H130.209V15.2936Z" fill="#FAFAFA"/>
<path d="M223.509 15.2942C222.528 15.2942 221.587 15.6838 220.894 16.3774C220.2 17.071 219.81 18.0117 219.81 18.9926C219.81 19.9734 220.2 20.9141 220.894 21.6077C221.587 22.3013 222.528 22.6909 223.509 22.6909C224.49 22.6909 225.43 22.3013 226.124 21.6077C226.817 20.9141 227.207 19.9734 227.207 18.9926C227.207 18.0117 226.817 17.071 226.124 16.3774C225.43 15.6838 224.49 15.2942 223.509 15.2942ZM223.509 15.2942H219.81M223.509 15.2942C224.49 15.2942 225.43 14.9045 226.124 14.211C226.817 13.5174 227.207 12.5767 227.207 11.5958C227.207 10.615 226.817 9.67426 226.124 8.98069C225.43 8.28711 224.49 7.89746 223.509 7.89746H219.81M219.81 15.2942V22.6909M219.81 15.2942V7.89746M219.81 15.2942H216.112M219.81 7.89746H216.112C215.131 7.89746 214.19 8.28711 213.497 8.98069C212.803 9.67426 212.414 10.615 212.414 11.5958C212.414 12.5767 212.803 13.5174 213.497 14.211C214.19 14.9045 215.131 15.2942 216.112 15.2942M216.112 22.6909C215.131 22.6909 214.19 23.0806 213.497 23.7741C212.803 24.4677 212.414 25.4084 212.414 26.3893C212.414 27.3701 212.803 28.3108 213.497 29.0044C214.19 29.698 215.131 30.0876 216.112 30.0876C217.093 30.0876 218.033 29.698 218.727 29.0044C219.421 28.3108 219.81 27.3701 219.81 26.3893V22.6909M216.112 22.6909H219.81M216.112 22.6909C215.131 22.6909 214.19 22.3013 213.497 21.6077C212.803 20.9141 212.414 19.9734 212.414 18.9926C212.414 18.0117 212.803 17.071 213.497 16.3774C214.19 15.6838 215.131 15.2942 216.112 15.2942" stroke="#FAFAFA" stroke-width="1.36256"/>
<path d="M272.064 9.90722H283.94V10.8511H273.153V17.9552H283.296V18.899H273.153V26.6986H284.063V27.6425H272.064V9.90722ZM285.004 9.90722H286.265L291.857 17.7068L297.572 9.90722L305.345 0L292.574 18.5265L299.155 27.6425H297.844L291.857 19.3462L285.845 27.6425H284.558L291.189 18.5265L285.004 9.90722ZM299.625 10.8511V9.90722H313.159V10.8511H306.924V27.6425H305.835V10.8511H299.625ZM257.207 9.90722H258.568L277.332 37.9857L269.578 27.6425L258.345 11.2485L258.296 27.6425H257.207V9.90722ZM313.049 26.4137C312.827 26.4137 312.66 26.2414 312.66 26.0187C312.66 25.796 312.827 25.6237 313.049 25.6237C313.274 25.6237 313.438 25.796 313.438 26.0187C313.438 26.2414 313.274 26.4137 313.049 26.4137ZM314.119 25.3745H314.701C314.709 25.69 314.94 25.9021 315.278 25.9021C315.657 25.9021 315.872 25.6741 315.872 25.2472V22.543H316.465V25.2499C316.465 26.0187 316.02 26.4615 315.284 26.4615C314.593 26.4615 314.119 26.032 314.119 25.3745ZM317.24 25.34H317.828C317.878 25.7032 318.233 25.9339 318.744 25.9339C319.221 25.9339 319.57 25.6873 319.57 25.348C319.57 25.0563 319.348 24.8814 318.842 24.7621L318.35 24.6428C317.659 24.481 317.344 24.147 317.344 23.5849C317.344 22.9036 317.9 22.4502 318.734 22.4502C319.509 22.4502 320.076 22.9036 320.111 23.5478H319.533C319.478 23.1952 319.171 22.9752 318.726 22.9752C318.257 22.9752 317.945 23.2005 317.945 23.5452C317.945 23.8182 318.146 23.9747 318.644 24.0913L319.065 24.1947C319.848 24.3776 320.171 24.6958 320.171 25.2711C320.171 26.0028 319.605 26.4615 318.699 26.4615C317.852 26.4615 317.283 26.024 317.24 25.34Z" fill="#FAFAFA"/>
<path d="M391.99 8.49316C390.53 8.49316 389.348 9.66916 389.348 11.1165V18.9932C389.348 21.8879 386.973 24.2432 384.056 24.2432C381.138 24.2432 378.764 21.8879 378.764 18.9932V11.1165C378.764 9.66593 377.581 8.49316 376.121 8.49316C374.661 8.49316 373.478 9.66916 373.478 11.1165V18.9932C373.478 24.7827 378.224 29.4932 384.056 29.4932C389.887 29.4932 394.633 24.7827 394.633 18.9932V11.1165C394.636 9.66916 393.451 8.49316 391.99 8.49316ZM391.99 12.9225C390.986 12.9225 390.172 12.1149 390.172 11.1165C390.172 10.1182 390.986 9.31055 391.99 9.31055C392.995 9.31055 393.809 10.1182 393.809 11.1165C393.809 12.1149 392.995 12.9225 391.99 12.9225Z" fill="#FAFAFA"/>
<path d="M403.133 18.9934L397.069 25.0123C396.035 26.0364 396.035 27.7003 397.069 28.7244C398.103 29.7486 399.777 29.7486 400.807 28.7244L406.871 22.7055L412.936 28.7244C413.969 29.7486 415.643 29.7486 416.674 28.7244C417.707 27.7003 417.707 26.0364 416.674 25.0123L410.613 18.9934L416.677 12.9744C417.711 11.9503 417.711 10.2864 416.677 9.26226C415.643 8.2381 413.969 8.2381 412.939 9.26226L406.875 15.2812L400.807 9.26226C399.773 8.2381 398.1 8.2381 397.069 9.26226C396.035 10.2864 396.035 11.9503 397.069 12.9744L403.133 18.9934ZM414.809 28.676C413.805 28.676 412.99 27.8683 412.99 26.87C412.99 25.8717 413.805 25.064 414.809 25.064C415.814 25.064 416.628 25.8717 416.628 26.87C416.628 27.8651 415.814 28.676 414.809 28.676Z" fill="#FAFAFA"/>
<path d="M369.698 8.69324C368.71 8.28616 367.572 8.51232 366.816 9.26186L360.749 15.2808L354.685 9.26186C353.929 8.51232 352.792 8.28616 351.803 8.69324C350.814 9.10032 350.171 10.0567 350.171 11.1163V26.8663C350.171 28.317 351.354 29.493 352.814 29.493C354.274 29.493 355.457 28.317 355.457 26.8696V17.4519L358.878 20.8474C359.912 21.8716 361.586 21.8716 362.616 20.8474L366.038 17.4519V26.8663C366.038 28.317 367.22 29.4897 368.68 29.4897C370.141 29.4897 371.323 28.3137 371.323 26.8663V11.1163C371.33 10.0567 370.687 9.10032 369.698 8.69324ZM368.684 28.6756C367.679 28.6756 366.865 27.8679 366.865 26.8696C366.865 25.8713 367.679 25.0636 368.684 25.0636C369.688 25.0636 370.503 25.8713 370.503 26.8696C370.506 27.8647 369.688 28.6756 368.684 28.6756Z" fill="#FAFAFA"/>
<path d="M476.336 21.0124C476.451 22.0813 477.423 23.9135 480.244 23.9135C482.703 23.9135 483.886 22.3485 483.886 20.8216C483.886 19.4474 482.951 18.3213 481.102 17.9396L479.768 17.6533C479.253 17.5579 478.91 17.2716 478.91 16.8135C478.91 16.2791 479.444 15.8783 480.111 15.8783C481.178 15.8783 481.579 16.5845 481.655 17.138L483.771 16.6609C483.657 15.6493 482.761 13.9507 480.092 13.9507C478.071 13.9507 476.584 15.3439 476.584 17.0235C476.584 18.3404 477.404 19.4283 479.215 19.8291L480.454 20.1154C481.178 20.2681 481.464 20.6117 481.464 21.0315C481.464 21.5278 481.064 21.9667 480.225 21.9667C479.12 21.9667 478.567 21.2796 478.51 20.5353L476.336 21.0124Z" fill="#FAFAFA"/>
<path d="M491.988 23.6271H494.409C494.371 23.3026 494.314 22.6537 494.314 21.9284V14.2368H491.778V19.6954C491.778 20.7833 491.13 21.5467 490.005 21.5467C488.823 21.5467 488.29 20.7069 488.29 19.6572V14.2368H485.754V20.1725C485.754 22.2147 487.05 23.8752 489.319 23.8752C490.31 23.8752 491.397 23.4935 491.912 22.6155C491.912 22.9972 491.95 23.4362 491.988 23.6271Z" fill="#FAFAFA"/>
<path d="M499.555 27.2534V22.711C500.012 23.3408 500.966 23.8562 502.262 23.8562C504.912 23.8562 506.684 21.7567 506.684 18.9129C506.684 16.1263 505.102 14.0269 502.357 14.0269C500.947 14.0269 499.898 14.6567 499.479 15.382V14.2368H497.02V27.2534H499.555ZM504.187 18.932C504.187 20.6115 503.158 21.5849 501.861 21.5849C500.565 21.5849 499.517 20.5924 499.517 18.932C499.517 17.2715 500.565 16.2981 501.861 16.2981C503.158 16.2981 504.187 17.2715 504.187 18.932Z" fill="#FAFAFA"/>
<path d="M508.12 21.0697C508.12 22.5393 509.34 23.8944 511.342 23.8944C512.733 23.8944 513.629 23.2455 514.106 22.5011C514.106 22.8638 514.144 23.3791 514.201 23.6272H516.527C516.47 23.3027 516.413 22.6347 516.413 22.1385V17.5197C516.413 15.6302 515.307 13.9507 512.333 13.9507C509.817 13.9507 508.463 15.5729 508.311 17.0426L510.56 17.5197C510.636 16.699 511.246 15.9929 512.352 15.9929C513.42 15.9929 513.934 16.5463 513.934 17.2143C513.934 17.5388 513.763 17.806 513.229 17.8824L510.922 18.2259C509.359 18.4549 508.12 19.3901 508.12 21.0697ZM511.875 22.0049C511.056 22.0049 510.655 21.4705 510.655 20.917C510.655 20.1917 511.17 19.8291 511.818 19.7337L513.934 19.4092V19.8291C513.934 21.4896 512.943 22.0049 511.875 22.0049Z" fill="#FAFAFA"/>
<path d="M521.428 23.6273V22.4821C521.923 23.2838 522.914 23.8563 524.211 23.8563C526.88 23.8563 528.634 21.7378 528.634 18.894C528.634 16.1074 527.051 13.9889 524.306 13.9889C522.914 13.9889 521.885 14.5997 521.465 15.2676V9.80908H518.968V23.6273H521.428ZM526.098 18.913C526.098 20.6308 525.068 21.5851 523.772 21.5851C522.495 21.5851 521.428 20.6117 521.428 18.913C521.428 17.1953 522.495 16.2601 523.772 16.2601C525.068 16.2601 526.098 17.1953 526.098 18.913Z" fill="#FAFAFA"/>
<path d="M530.069 21.0697C530.069 22.5393 531.289 23.8944 533.291 23.8944C534.682 23.8944 535.578 23.2455 536.055 22.5011C536.055 22.8638 536.093 23.3791 536.15 23.6272H538.476C538.419 23.3027 538.362 22.6347 538.362 22.1385V17.5197C538.362 15.6302 537.256 13.9507 534.282 13.9507C531.766 13.9507 530.412 15.5729 530.26 17.0426L532.509 17.5197C532.585 16.699 533.195 15.9929 534.301 15.9929C535.369 15.9929 535.883 16.5463 535.883 17.2143C535.883 17.5388 535.712 17.806 535.178 17.8824L532.871 18.2259C531.308 18.4549 530.069 19.3901 530.069 21.0697ZM533.825 22.0049C533.005 22.0049 532.604 21.4705 532.604 20.917C532.604 20.1917 533.119 19.8291 533.767 19.7337L535.883 19.4092V19.8291C535.883 21.4896 534.892 22.0049 533.825 22.0049Z" fill="#FAFAFA"/>
<path d="M540.116 21.0124C540.231 22.0813 541.203 23.9135 544.024 23.9135C546.483 23.9135 547.665 22.3485 547.665 20.8216C547.665 19.4474 546.731 18.3213 544.882 17.9396L543.548 17.6533C543.033 17.5579 542.69 17.2716 542.69 16.8135C542.69 16.2791 543.224 15.8783 543.891 15.8783C544.959 15.8783 545.359 16.5845 545.435 17.138L547.551 16.6609C547.437 15.6493 546.541 13.9507 543.872 13.9507C541.851 13.9507 540.364 15.3439 540.364 17.0235C540.364 18.3404 541.184 19.4283 542.995 19.8291L544.234 20.1154C544.959 20.2681 545.244 20.6117 545.244 21.0315C545.244 21.5278 544.844 21.9667 544.005 21.9667C542.9 21.9667 542.347 21.2796 542.29 20.5353L540.116 21.0124Z" fill="#FAFAFA"/>
<path d="M551.516 17.8633C551.573 17.0044 552.298 16.0119 553.613 16.0119C555.062 16.0119 555.672 16.9281 555.71 17.8633H551.516ZM555.958 20.3063C555.653 21.146 555.005 21.7377 553.823 21.7377C552.564 21.7377 551.516 20.8407 551.459 19.6001H558.169C558.169 19.5619 558.207 19.1802 558.207 18.8175C558.207 15.802 556.473 13.9507 553.575 13.9507C551.173 13.9507 548.961 15.8974 548.961 18.8939C548.961 22.0622 551.23 23.9135 553.804 23.9135C556.11 23.9135 557.597 22.5584 558.074 20.9361L555.958 20.3063Z" fill="#FAFAFA"/>
<path d="M459.604 29.3174C459.058 30.0045 457.952 29.628 457.939 28.7507L457.746 15.918H466.375C467.938 15.918 468.81 17.7232 467.838 18.9472L459.604 29.3174Z" fill="#FAFAFA"/>
<path d="M456.095 8.66837C456.64 7.98116 457.747 8.3577 457.76 9.23509L457.844 22.0677H449.323C447.76 22.0677 446.889 20.2626 447.861 19.0386L456.095 8.66837Z" fill="#FAFAFA"/>
<path d="M592.35 7.58789H607.459C609.749 7.58789 611.602 9.43996 611.602 11.7307V26.2548C611.602 28.5455 609.749 30.3976 607.459 30.3976H592.35C590.059 30.3976 588.207 28.5455 588.207 26.2548V11.7307C588.207 9.43996 590.059 7.58789 592.35 7.58789Z" fill="#FAFAFA"/>
<path d="M593.763 23.5746V13.5344C593.763 13.4662 593.793 13.4272 593.861 13.4272C594.026 13.4272 594.182 13.4272 594.407 13.4175C594.641 13.4077 594.884 13.4077 595.147 13.398C595.411 13.3882 595.693 13.3882 595.996 13.3785C596.298 13.3687 596.59 13.3687 596.883 13.3687C597.682 13.3687 598.345 13.4662 598.891 13.6709C599.378 13.8366 599.826 14.1095 600.197 14.4702C600.509 14.7821 600.752 15.1623 600.908 15.5814C601.055 15.9908 601.133 16.41 601.133 16.8486C601.133 17.687 600.938 18.379 600.548 18.9249C600.158 19.4708 599.612 19.8802 598.978 20.1141C598.315 20.3578 597.584 20.4456 596.785 20.4456C596.551 20.4456 596.395 20.4456 596.298 20.4358C596.2 20.4261 596.064 20.4261 595.879 20.4261V23.5551C595.888 23.6233 595.84 23.6818 595.771 23.6915H593.88C593.802 23.6915 593.763 23.6526 593.763 23.5648V23.5746ZM595.888 15.3183V18.5935C596.025 18.6032 596.151 18.613 596.268 18.613H596.785C597.165 18.613 597.545 18.5545 597.906 18.4375C598.218 18.3498 598.491 18.1646 598.705 17.9209C598.91 17.6772 599.008 17.3458 599.008 16.9169C599.017 16.6147 598.939 16.3125 598.783 16.0493C598.618 15.7959 598.384 15.6009 598.101 15.4937C597.74 15.3475 597.35 15.289 596.951 15.2988C596.697 15.2988 596.473 15.2988 596.288 15.3085C596.093 15.2988 595.957 15.3085 595.888 15.3183Z" fill="#222222"/>
<path d="M602.536 15.8935H604.242C604.34 15.8935 604.418 15.9617 604.447 16.0495C604.476 16.1274 604.496 16.2054 604.505 16.2932C604.525 16.3906 604.544 16.4979 604.554 16.5953C604.564 16.7026 604.573 16.8195 604.573 16.9462C604.866 16.6051 605.217 16.3224 605.617 16.1079C606.065 15.8545 606.582 15.7278 607.098 15.7278C607.166 15.718 607.225 15.7668 607.235 15.835V17.7748C607.235 17.8528 607.186 17.882 607.079 17.882C606.728 17.8723 606.367 17.9015 606.026 17.9795C605.743 18.038 605.47 18.1257 605.207 18.2427C605.022 18.3304 604.846 18.4474 604.71 18.6034V23.5747C604.71 23.6722 604.671 23.7112 604.583 23.7112H602.663C602.585 23.7209 602.517 23.6722 602.507 23.5942V18.155C602.507 17.921 602.507 17.6773 602.497 17.4239C602.487 17.1704 602.487 16.917 602.478 16.6636C602.478 16.4394 602.458 16.2249 602.439 16.0007C602.429 15.952 602.458 15.9032 602.507 15.8935C602.507 15.8837 602.526 15.8837 602.536 15.8935Z" fill="#222222"/>
<path d="M647.448 28.5894C644.31 28.5894 641.602 26.739 641.602 22.9842H644.712C644.712 24.7545 646 25.6664 647.448 25.6664C648.869 25.6664 650.13 24.8351 650.13 22.7701V9.26562H653.268V23.0376C653.268 26.9803 650.506 28.5894 647.448 28.5894Z" fill="#FAFAFA"/>
<path d="M657.571 13.2161C656.499 13.2161 655.587 12.331 655.587 11.2317C655.587 10.1592 656.499 9.27393 657.571 9.27393C658.671 9.27393 659.529 10.1592 659.529 11.2317C659.529 12.331 658.671 13.2161 657.571 13.2161ZM656.096 14.9902H659.046V28.5028H656.096V14.9902Z" fill="#FAFAFA"/>
<path d="M666.505 28.5552C663.93 28.5552 661.919 27.1335 661.919 24.1032V11.2832H664.869V15.0113H668.115V17.6395H664.869V23.62C664.869 25.283 665.593 25.873 667.122 25.873C667.686 25.873 668.276 25.7923 668.705 25.6317V28.2599C668.114 28.4479 667.417 28.5552 666.505 28.5552Z" fill="#FAFAFA"/>
<path d="M669.863 24.1032C669.863 27.1335 671.874 28.5552 674.449 28.5552C675.361 28.5552 676.058 28.4479 676.649 28.2599V25.6317C676.22 25.7923 675.63 25.873 675.066 25.873C673.537 25.873 672.813 25.283 672.813 23.62V17.6395H676.624V15.0113H672.813V11.2832H669.863V24.1032Z" fill="#FAFAFA"/>
<path d="M684.084 14.7744C687.597 14.7744 690.547 17.1075 690.547 21.4255C690.547 21.7207 690.547 21.962 690.521 22.3907H679.98C680.114 24.5898 681.885 26.0382 684.11 26.0382C685.987 26.0382 687.248 25.1797 687.946 23.9999L690.199 25.609C688.992 27.5133 686.9 28.7199 684.084 28.7199C680.007 28.7199 677.084 25.8236 677.084 21.7469C677.083 17.8052 680.007 14.7744 684.084 14.7744ZM680.114 20.2456H687.57C687.248 18.3146 685.693 17.2687 683.976 17.2687C682.259 17.2687 680.516 18.2612 680.114 20.2456Z" fill="#FAFAFA"/>
<path d="M692.322 15.0632H695.272V17.4501C695.782 15.9216 697.284 14.9292 698.813 14.9292C699.188 14.9292 699.564 14.9559 699.966 15.0365V18.0673C699.456 17.9066 699.027 17.8259 698.491 17.8259C696.801 17.8259 695.272 19.2472 695.272 21.9293V28.4731H692.322V15.0632Z" fill="#FAFAFA"/>
<path d="M814.116 15.8975H811.57V24.8478H814.116V15.8975Z" fill="#FAFAFA"/>
<path d="M814.116 12.9478H811.57V14.9268H814.116V12.9478Z" fill="#FAFAFA"/>
<path d="M758.579 12.9478H755.918V24.8479H764.045V22.5664H758.579V12.9478Z" fill="#FAFAFA"/>
<path d="M769.307 15.1528C766.473 15.1528 764.23 17.3392 764.23 20.0946C764.23 22.85 766.473 25.0422 769.307 25.0422C772.14 25.0422 774.401 22.8557 774.401 20.0989C774.401 17.3421 772.157 15.1528 769.307 15.1528ZM769.307 22.68C767.881 22.68 766.815 21.5969 766.815 20.0874C766.815 18.5779 767.881 17.5034 769.307 17.5034C770.733 17.5034 771.797 18.6053 771.797 20.0874C771.797 21.5695 770.733 22.68 769.307 22.68Z" fill="#FAFAFA"/>
<path d="M785.08 22.8328C784.624 22.8328 784.225 22.5663 784.225 21.7497V17.9486H786.653V15.8976H784.225V13.3179H781.678V15.8976H778.334V13.3179H775.787V15.8976H774.4V17.9486H775.787V21.7871C775.787 23.9347 776.814 25.038 778.714 25.038C779.572 25.0397 780.411 24.7892 781.128 24.3178L780.408 22.4367C780.047 22.6805 779.626 22.8186 779.191 22.8357C778.734 22.8357 778.335 22.5692 778.335 21.7525V17.9486H781.68V21.7871C781.68 23.9347 782.705 25.038 784.606 25.038C785.464 25.0394 786.304 24.7889 787.02 24.3178L786.3 22.4367C785.939 22.6804 785.516 22.8176 785.08 22.8328Z" fill="#FAFAFA"/>
<path d="M801.18 19.425C800.792 16.7531 798.463 14.8634 795.903 15.2365C795.259 15.3243 794.64 15.5398 794.08 15.8703C793.521 16.2009 793.033 16.6397 792.646 17.1612C792.259 17.6826 791.979 18.2762 791.824 18.9071C791.669 19.538 791.642 20.1934 791.743 20.835C792.194 23.939 794.863 25.3764 797.608 24.976C798.852 24.8012 800.016 24.2649 800.957 23.4335L799.753 21.7641C799.066 22.3581 798.222 22.7412 797.322 22.8674C796.08 23.0475 794.918 22.5793 794.428 21.3291L801.255 20.3353C801.247 20.0307 801.222 19.7268 801.18 19.425ZM794.146 19.6598C794.218 18.4398 795.045 17.5122 796.135 17.3552C796.689 17.2691 797.255 17.3878 797.728 17.6893C798.201 17.9908 798.547 18.4542 798.703 18.9929L794.146 19.6598Z" fill="#FAFAFA"/>
<path d="M828.825 19.425C828.436 16.7531 826.106 14.8634 823.548 15.2365C822.904 15.3241 822.284 15.5395 821.725 15.87C821.165 16.2004 820.677 16.6393 820.29 17.1608C819.903 17.6823 819.623 18.276 819.468 18.9069C819.313 19.5379 819.286 20.1934 819.388 20.835C819.839 23.939 822.506 25.3764 825.253 24.976C826.496 24.8012 827.66 24.2648 828.6 23.4335L827.398 21.7641C826.71 22.3582 825.865 22.7414 824.965 22.8674C823.723 23.0475 822.561 22.5793 822.071 21.3291L828.9 20.3353C828.891 20.0307 828.866 19.7268 828.825 19.425ZM821.79 19.6598C821.862 18.4398 822.688 17.5122 823.779 17.3552C824.333 17.2687 824.899 17.3874 825.371 17.689C825.842 17.9906 826.188 18.4543 826.342 18.9929L821.79 19.6598Z" fill="#FAFAFA"/>
<path d="M818.297 12.9478H815.751V24.8465H818.297V12.9478Z" fill="#FAFAFA"/>
<path d="M834.098 18.8976C833.224 18.7075 832.426 18.536 832.426 18.0046C832.426 17.6056 832.977 17.3391 833.567 17.3391C834.487 17.3537 835.391 17.5815 836.208 18.0046L837.064 16.1033C836.001 15.4532 834.773 15.1231 833.528 15.1527C831.742 15.1527 829.84 16.1796 829.84 18.1183C829.84 19.9433 831.38 20.5669 833.263 21.0639C834.079 21.2929 834.898 21.4253 834.898 21.9957C834.898 22.5661 833.928 22.7937 833.338 22.7937C832.262 22.8147 831.213 22.4579 830.373 21.7855L829.46 23.7457C829.993 24.2398 831.304 25.0421 833.338 25.0421C835.106 25.0421 837.481 24.2629 837.481 21.9237C837.481 19.9807 835.72 19.2807 834.098 18.8976Z" fill="#FAFAFA"/>
<path d="M790.591 15.8975H788.045V24.8478H790.591V15.8975Z" fill="#FAFAFA"/>
<path d="M790.591 12.9478H788.045V14.9268H790.591V12.9478Z" fill="#FAFAFA"/>
<path d="M802.265 24.8479H804.921V19.9853H809.425V17.7283H804.921V15.225H810.393V12.9478H802.265V24.8479Z" fill="#FAFAFA"/>
<path d="M745.635 8.50391H735.273C732.342 8.50391 729.966 10.8802 729.966 13.8116V24.1734C729.966 27.1047 732.342 29.4811 735.273 29.4811H745.635C748.567 29.4811 750.943 27.1047 750.943 24.1734V13.8116C750.943 10.8802 748.567 8.50391 745.635 8.50391Z" fill="#FAFAFA"/>
<path d="M745.909 13.2021C742.298 13.2021 740.96 15.7804 739.884 17.8516L739.181 19.1767C738.042 21.3732 737.191 22.7084 734.997 22.7084C734.861 22.7084 734.726 22.7353 734.6 22.7874C734.474 22.8394 734.36 22.9159 734.264 23.0122C734.167 23.1085 734.091 23.2227 734.039 23.3486C733.987 23.4744 733.96 23.6093 733.96 23.7455C733.96 24.0204 734.07 24.2839 734.264 24.4783C734.458 24.6727 734.722 24.7821 734.997 24.7826C738.609 24.7826 739.947 22.2043 741.023 20.1331L741.725 18.808C742.866 16.6114 743.717 15.2762 745.909 15.2762C746.045 15.2764 746.18 15.2497 746.306 15.1977C746.432 15.1457 746.547 15.0693 746.643 14.973C746.74 14.8767 746.816 14.7623 746.868 14.6364C746.921 14.5105 746.947 14.3755 746.947 14.2392C746.947 13.964 746.838 13.7002 746.643 13.5058C746.448 13.3114 746.184 13.2021 745.909 13.2021Z" fill="#222222"/>
<path d="M867.481 8.49316H881.481V15.4932H874.481L867.481 8.49316ZM867.481 15.4932H874.481L881.481 22.4932H874.481V29.4932L867.481 22.4932V15.4932Z" fill="#FAFAFA"/>
<path d="M977.39 25.0028L977.348 24.9605L977.133 25.1751C976.931 25.3762 976.659 25.4892 976.374 25.4893H970.74C970.681 25.4892 970.623 25.4718 970.574 25.4391C970.525 25.4064 970.487 25.3598 970.465 25.3054C970.442 25.251 970.436 25.1912 970.447 25.1334C970.459 25.0756 970.487 25.0225 970.529 24.9808L974.135 21.3753L974.093 21.333L973.668 21.7575C973.643 21.7824 973.611 21.7994 973.576 21.8063C973.542 21.8132 973.506 21.8097 973.473 21.7961C973.441 21.7826 973.413 21.7597 973.393 21.7303C973.373 21.7009 973.363 21.6664 973.363 21.631V12.8558L973.742 12.4761H975.855V12.4725L979.205 9.12338L979.162 9.08105L978.977 9.26704C978.877 9.36668 978.759 9.44571 978.629 9.49961C978.498 9.55352 978.359 9.58124 978.218 9.58121H966.379L962.999 12.9625L963.041 13.0049L963.246 12.8028C963.447 12.605 963.717 12.4939 963.998 12.4934L969.321 12.4844C969.38 12.4843 969.438 12.5017 969.487 12.5344C969.536 12.567 969.574 12.6135 969.597 12.668C969.619 12.7224 969.625 12.7823 969.614 12.8402C969.603 12.898 969.574 12.9512 969.533 12.9929L965.976 16.5495L966.018 16.5919L966.439 16.1704C966.464 16.1454 966.496 16.1283 966.531 16.1214C966.566 16.1146 966.602 16.1182 966.634 16.1318C966.667 16.1454 966.695 16.1684 966.715 16.1979C966.734 16.2273 966.745 16.262 966.744 16.2974V25.0523L966.307 25.4893H964.486L961.061 28.8778L961.104 28.9201L961.283 28.7413C961.483 28.5431 961.753 28.4318 962.035 28.4313H973.99L977.39 25.0028ZM970.127 12.4838L972.934 12.479C972.993 12.4791 973.051 12.4965 973.1 12.5292C973.149 12.562 973.187 12.6085 973.209 12.6629C973.232 12.7173 973.238 12.7772 973.226 12.8349C973.215 12.8927 973.187 12.9458 973.145 12.9876L970.234 15.8997C970.192 15.9415 970.139 15.97 970.081 15.9816C970.023 15.9931 969.963 15.9872 969.909 15.9646C969.854 15.942 969.807 15.9037 969.775 15.8546C969.742 15.8055 969.724 15.7477 969.725 15.6887V12.8868L970.127 12.4838ZM969.725 16.4923L970.38 15.8365V21.4176L969.725 22.0734V16.4923ZM969.874 22.0114C969.915 21.9696 969.968 21.9411 970.026 21.9296C970.084 21.918 970.144 21.9239 970.199 21.9464C970.253 21.969 970.3 22.0071 970.332 22.0561C970.365 22.1052 970.383 22.1628 970.383 22.2218V25.0434L969.936 25.4905H967.113C967.054 25.4905 966.996 25.473 966.947 25.4403C966.898 25.4076 966.86 25.3611 966.838 25.3066C966.815 25.2522 966.809 25.1924 966.821 25.1346C966.832 25.0768 966.86 25.0237 966.902 24.9819L969.874 22.0114Z" fill="#FAFAFA"/>
<path d="M944.841 24.9754L944.799 24.9331L944.564 25.1685C944.464 25.2682 944.346 25.3472 944.216 25.4011C944.085 25.455 943.946 25.4827 943.805 25.4827H937.516C937.457 25.4826 937.4 25.465 937.351 25.4323C937.302 25.3995 937.264 25.353 937.241 25.2986C937.219 25.2442 937.213 25.1844 937.224 25.1267C937.236 25.069 937.264 25.0159 937.306 24.9742L945.318 16.9609L945.277 16.9185L944.994 17.2005C944.894 17.3008 944.775 17.3801 944.644 17.4341C944.512 17.488 944.372 17.5153 944.23 17.5146C944.088 17.5139 943.948 17.4851 943.817 17.4299C943.687 17.3746 943.569 17.294 943.469 17.1927L941.524 15.2094C941.469 15.1537 941.439 15.0788 941.439 15.0008C941.439 14.9227 941.469 14.8478 941.524 14.7921L947.187 9.12876L947.145 9.08643L946.959 9.27362C946.859 9.37333 946.74 9.45239 946.61 9.5063C946.48 9.56021 946.34 9.58789 946.199 9.58778H938.003L934.592 12.9989C934.55 13.0407 934.497 13.0691 934.44 13.0807C934.382 13.0922 934.322 13.0864 934.267 13.0639C934.213 13.0413 934.166 13.0031 934.133 12.9541C934.1 12.9051 934.083 12.8474 934.083 12.7885V9.09239H934.023V10.7979C934.023 10.8384 934.009 10.8777 933.984 10.9092C933.958 10.9408 933.923 10.9627 933.883 10.9715C933.844 10.9803 933.802 10.9754 933.766 10.9576C933.73 10.9399 933.7 10.9102 933.683 10.8736C933.206 9.85009 932.475 9.58123 932.475 9.58123L929.056 12.9607L929.098 13.0031L929.249 12.854C929.877 12.2352 930.946 12.5935 931.065 13.4669C931.091 13.6599 931.104 13.8545 931.103 14.0493V25.1232L927.361 28.8652L927.403 28.9069L927.579 28.7311C927.78 28.5303 928.052 28.4174 928.336 28.4169H941.386L944.841 24.9754ZM941.056 21.1392L936.713 25.4827H934.993C934.934 25.4826 934.876 25.465 934.827 25.4323C934.779 25.3995 934.74 25.353 934.718 25.2986C934.695 25.2442 934.69 25.1844 934.701 25.1267C934.712 25.069 934.741 25.0159 934.782 24.9742L937.368 22.3882C937.468 22.2883 937.547 22.1698 937.601 22.0394C937.655 21.909 937.683 21.7692 937.683 21.6281V18.6331L938.338 17.9773L941.057 20.7195C941.112 20.7755 941.143 20.851 941.143 20.9296C941.143 21.0082 941.112 21.0836 941.056 21.1392ZM937.681 17.8325V13.8788L939.073 12.4868L943.037 12.4767C943.096 12.4765 943.154 12.4938 943.203 12.5265C943.252 12.5592 943.291 12.6058 943.313 12.6603C943.336 12.7149 943.342 12.775 943.331 12.8329C943.319 12.8908 943.291 12.9441 943.249 12.9858L938.192 18.0429C938.15 18.085 938.097 18.1139 938.039 18.1256C937.981 18.1375 937.92 18.1317 937.866 18.1091C937.811 18.0866 937.764 18.0482 937.731 17.9989C937.699 17.9496 937.681 17.8916 937.681 17.8325ZM935.178 12.4969L938.266 12.4892C938.324 12.4891 938.382 12.5065 938.431 12.5391C938.48 12.5718 938.519 12.6183 938.541 12.6727C938.564 12.7272 938.57 12.7871 938.559 12.8449C938.547 12.9028 938.519 12.9559 938.477 12.9977L934.595 16.8524C934.553 16.8937 934.5 16.9219 934.443 16.9332C934.385 16.9445 934.325 16.9385 934.271 16.9159C934.217 16.8934 934.17 16.8553 934.137 16.8064C934.105 16.7575 934.087 16.7001 934.087 16.6413V13.7101C934.087 13.6311 934.119 13.5554 934.175 13.4997L935.178 12.4969ZM934.087 17.4699L934.701 16.8583V21.5309L934.086 22.1467L934.087 17.4699ZM934.703 22.3345V24.9736L934.191 25.4857H931.551C931.492 25.4857 931.435 25.4682 931.386 25.4355C931.337 25.4028 931.299 25.3563 931.276 25.3019C931.253 25.2475 931.247 25.1876 931.259 25.1298C931.27 25.072 931.299 25.0189 931.34 24.9772L934.193 22.124C934.235 22.0825 934.288 22.0541 934.345 22.0424C934.403 22.0308 934.462 22.0364 934.517 22.0585C934.571 22.0807 934.618 22.1184 934.651 22.167C934.684 22.2156 934.702 22.2728 934.702 22.3315L934.703 22.3345Z" fill="#FAFAFA"/>
<path d="M963.211 25.0028L963.169 24.9605L963.01 25.1203C962.383 25.7474 961.3 25.3874 961.189 24.5074C961.167 24.3265 961.156 24.1443 961.156 23.962V9.08643H961.099V10.5684C961.099 10.6069 961.087 10.6444 961.064 10.6752C961.041 10.7061 961.008 10.7287 960.971 10.7396C960.934 10.7506 960.895 10.7494 960.859 10.7362C960.823 10.7229 960.792 10.6984 960.771 10.6662C960.555 10.3327 960.258 10.0585 959.909 9.8688C959.559 9.67908 959.168 9.57981 958.771 9.58003H954.263L950.797 13.046C950.756 13.0876 950.703 13.1159 950.646 13.1273C950.588 13.1387 950.528 13.1328 950.474 13.1102C950.419 13.0876 950.373 13.0494 950.34 13.0004C950.307 12.9514 950.289 12.8939 950.289 12.835V9.08643H950.229V10.7979C950.229 10.8387 950.215 10.8782 950.19 10.91C950.164 10.9418 950.13 10.964 950.09 10.9728C950.05 10.9816 950.008 10.9766 949.971 10.9586C949.935 10.9405 949.905 10.9106 949.888 10.8736C949.411 9.85009 948.682 9.58123 948.682 9.58123L945.262 12.9607L945.305 13.0031L945.456 12.854C946.083 12.2352 947.152 12.5935 947.271 13.4669C947.297 13.6599 947.31 13.8545 947.309 14.0493V25.1292L943.562 28.8748L943.606 28.9165L943.794 28.7287C943.894 28.6316 944.012 28.5552 944.142 28.504C944.272 28.4529 944.41 28.4279 944.549 28.4307H951.909L954.788 25.5137L955.271 25.0303L955.229 24.9879L955.043 25.1745C954.943 25.2742 954.825 25.3534 954.695 25.4074C954.564 25.4614 954.425 25.4892 954.284 25.4893H951.34C951.281 25.4892 951.223 25.4718 951.174 25.439C951.124 25.4062 951.087 25.3596 951.065 25.3051C951.042 25.2506 951.035 25.1906 951.047 25.1328C951.059 25.0749 951.088 25.0218 951.13 24.9802L957.669 18.4399C957.711 18.3983 957.765 18.3701 957.822 18.3586C957.88 18.3471 957.94 18.3531 957.994 18.3756C958.049 18.3981 958.095 18.4362 958.128 18.4851C958.161 18.534 958.178 18.5915 958.179 18.6503V25.0809C958.179 27.8387 959.788 28.4277 959.788 28.4277L963.211 25.0028ZM951.432 12.4934H954.565C954.624 12.4933 954.681 12.5107 954.731 12.5434C954.78 12.5762 954.818 12.6228 954.841 12.6773C954.863 12.7318 954.868 12.7918 954.857 12.8497C954.845 12.9076 954.818 12.9608 954.776 13.0025L950.797 16.9823C950.756 17.0241 950.703 17.0526 950.646 17.0641C950.588 17.0757 950.528 17.0698 950.473 17.0472C950.419 17.0246 950.372 16.9863 950.339 16.9372C950.306 16.8881 950.289 16.8303 950.289 16.7713C950.289 15.65 950.289 13.6392 950.289 13.6392L951.432 12.4934ZM950.286 17.5755L950.924 16.9382V21.513L950.286 22.1527L950.286 17.5755ZM947.539 24.9825L950.418 22.1044C950.46 22.0628 950.512 22.0345 950.57 22.0231C950.627 22.0116 950.687 22.0176 950.742 22.0402C950.796 22.0628 950.843 22.101 950.875 22.15C950.908 22.1989 950.926 22.2565 950.926 22.3154V24.9754C950.926 25.0544 950.895 25.1301 950.839 25.1859L950.534 25.4917H947.75C947.691 25.4916 947.632 25.474 947.583 25.4411C947.534 25.4083 947.496 25.3617 947.474 25.3072C947.451 25.2527 947.446 25.1928 947.458 25.135C947.47 25.0773 947.497 25.0242 947.539 24.9825ZM953.906 21.3997V13.9575L955.37 12.4934H957.107C957.391 12.4934 957.664 12.6064 957.865 12.8077C958.067 13.0089 958.18 13.2818 958.18 13.5664V17.8515L954.419 21.6125C954.377 21.6555 954.323 21.6849 954.265 21.6971C954.206 21.7092 954.145 21.7033 954.09 21.6804C954.035 21.6574 953.988 21.6184 953.955 21.5683C953.922 21.5183 953.905 21.4595 953.906 21.3997Z" fill="#FAFAFA"/>
<path d="M929.986 16.4419L920.949 25.4788H919.135C919.076 25.4788 919.019 25.4613 918.97 25.4285C918.921 25.3957 918.882 25.3491 918.86 25.2946C918.837 25.2401 918.832 25.1802 918.843 25.1224C918.855 25.0645 918.883 25.0114 918.925 24.9697L921.479 22.4141C921.68 22.2128 921.792 21.9401 921.792 21.6558V14.0848C921.792 14.0456 921.8 14.0067 921.815 13.9705C921.83 13.9343 921.852 13.9014 921.88 13.8737L923.26 12.4937C923.543 12.4957 923.814 12.6097 924.014 12.8107C924.213 13.0117 924.325 13.2835 924.325 13.5667V15.7218C924.325 15.8158 924.307 15.9088 924.271 15.9956C924.235 16.0825 924.182 16.1614 924.116 16.2279L923.92 16.424L923.956 16.4717L927.305 13.125V9.08849H927.245V10.5699C927.245 10.6082 927.232 10.6455 927.21 10.6761C927.186 10.7068 927.154 10.7293 927.118 10.7402C927.081 10.7512 927.042 10.75 927.005 10.737C926.969 10.7239 926.939 10.6996 926.917 10.6677C926.701 10.3345 926.405 10.0606 926.055 9.87105C925.706 9.68146 925.315 9.58213 924.918 9.58209H922.116L919.666 12.0412L918.712 12.995C918.67 13.0366 918.617 13.0649 918.559 13.0763C918.502 13.0878 918.442 13.0818 918.387 13.0592C918.333 13.0366 918.286 12.9984 918.254 12.9495C918.221 12.9005 918.204 12.8429 918.204 12.784V9.08789H918.144V10.7976C918.144 10.8384 918.13 10.8779 918.105 10.9097C918.079 10.9415 918.044 10.9637 918.004 10.9725C917.964 10.9813 917.923 10.9763 917.886 10.9583C917.849 10.9402 917.82 10.9103 917.803 10.8733C917.326 9.84976 916.596 9.5809 916.596 9.5809L913.177 12.9604L913.219 13.0028L913.369 12.8537C913.998 12.2343 915.067 12.5944 915.186 13.4689C915.211 13.6612 915.224 13.855 915.223 14.049V25.111L911.481 28.8524L911.524 28.8947L911.67 28.7481C911.871 28.5469 912.143 28.4334 912.428 28.4327H923.245L929.139 22.5023C929.34 22.3011 929.453 22.0284 929.453 21.744V17.4953C929.453 17.2109 929.566 16.9381 929.768 16.737L930.021 16.4836L929.986 16.4419ZM918.21 16.7072V13.5828L919.3 12.4931H922.455C922.514 12.493 922.572 12.5104 922.621 12.5431C922.67 12.5759 922.709 12.6225 922.731 12.677C922.754 12.7315 922.76 12.7915 922.748 12.8494C922.737 12.9073 922.708 12.9605 922.666 13.0022L918.718 16.9505C918.676 16.9922 918.623 17.0207 918.565 17.0323C918.507 17.0438 918.447 17.0379 918.393 17.0153C918.338 16.9927 918.292 16.9544 918.259 16.9053C918.226 16.8562 918.209 16.7984 918.209 16.7394L918.21 16.7072ZM918.21 17.5418L918.813 16.9379V21.5246L918.209 22.1291L918.21 17.5418ZM918.329 25.477H915.665C915.606 25.4772 915.548 25.4598 915.499 25.427C915.45 25.3942 915.412 25.3476 915.389 25.2931C915.367 25.2386 915.361 25.1786 915.372 25.1207C915.384 25.0628 915.412 25.0096 915.454 24.968L918.304 22.1184C918.346 22.0766 918.399 22.0482 918.457 22.0366C918.515 22.0251 918.575 22.0309 918.629 22.0534C918.684 22.076 918.73 22.1142 918.763 22.1632C918.796 22.2122 918.813 22.2698 918.813 22.3289V24.9894L918.329 25.477ZM926.48 25.0091C926.48 25.0565 926.461 25.1019 926.427 25.1355L926.139 25.4246C926.105 25.4582 926.06 25.477 926.012 25.477H921.751C921.692 25.4772 921.634 25.4598 921.585 25.427C921.536 25.3942 921.498 25.3476 921.475 25.2931C921.453 25.2386 921.447 25.1786 921.458 25.1207C921.47 25.0628 921.498 25.0096 921.54 24.968L925.971 20.5374C926.013 20.4958 926.066 20.4675 926.124 20.4561C926.182 20.4447 926.242 20.4506 926.296 20.4732C926.35 20.4958 926.397 20.534 926.43 20.583C926.462 20.632 926.48 20.6895 926.48 20.7484V25.0091Z" fill="#FAFAFA"/>
<path d="M989.864 16.6669L985.725 16.0486C985.67 16.0404 985.619 16.0172 985.577 15.9816C985.535 15.9461 985.503 15.8995 985.486 15.8471C985.469 15.7946 985.467 15.7385 985.48 15.6848C985.492 15.6312 985.52 15.5821 985.559 15.5431L991.992 9.10776L991.95 9.06543L991.748 9.26693C991.649 9.36656 991.531 9.44559 991.4 9.4995C991.27 9.5534 991.13 9.58113 990.99 9.58109H983.067L976.705 15.9431V16.4022C976.705 16.8818 976.877 17.3454 977.19 17.7089C977.503 18.0723 977.936 18.3113 978.41 18.3826C978.457 18.3897 978.5 18.4095 978.536 18.4398C978.572 18.4701 978.598 18.5098 978.613 18.5543C978.628 18.599 978.63 18.6467 978.619 18.6924C978.608 18.738 978.585 18.7798 978.552 18.813L975.404 21.9606L975.446 22.0029L975.633 21.8163C975.712 21.7372 975.809 21.6777 975.915 21.6428C976.022 21.6077 976.135 21.5982 976.245 21.6148L981.307 22.3773C981.361 22.3856 981.412 22.4089 981.454 22.4445C981.496 22.4801 981.527 22.5267 981.545 22.5791C981.562 22.6315 981.564 22.6876 981.552 22.7412C981.539 22.7949 981.511 22.8439 981.472 22.8828L975.456 28.8777L975.498 28.92L975.672 28.7459C975.874 28.5458 976.146 28.4335 976.429 28.4335H985.157C985.172 28.4335 985.187 28.4273 985.198 28.4162L991.932 21.743V19.0687C991.932 18.487 991.724 17.9246 991.344 17.4838C990.964 17.043 990.439 16.7531 989.864 16.6669ZM985.067 15.9515L982.548 15.5747C982.493 15.5666 982.442 15.5435 982.4 15.5079C982.357 15.4723 982.326 15.4257 982.309 15.3734C982.292 15.3209 982.289 15.2647 982.302 15.211C982.314 15.1574 982.342 15.1082 982.381 15.0692L984.967 12.4825L987.822 12.4754C987.881 12.4753 987.939 12.4926 987.988 12.5253C988.037 12.558 988.075 12.6045 988.098 12.6589C988.121 12.7133 988.127 12.7733 988.115 12.8311C988.104 12.889 988.075 12.9421 988.034 12.9839L985.067 15.9515ZM980.406 15.2546C980.246 15.2309 980.101 15.1507 979.995 15.0287C979.89 14.9067 979.833 14.751 979.832 14.5899V12.879L980.221 12.495L984.161 12.4849C984.22 12.4848 984.277 12.5022 984.327 12.5349C984.376 12.5675 984.414 12.614 984.437 12.6684C984.459 12.7229 984.465 12.7828 984.454 12.8407C984.443 12.8985 984.414 12.9517 984.372 12.9934L981.89 15.4764L980.406 15.2546ZM978.505 18.9459L978.981 18.469L984.328 19.2726C984.39 19.282 984.449 19.3085 984.497 19.3492C984.545 19.3899 984.581 19.4431 984.601 19.5031C984.62 19.563 984.623 19.6271 984.608 19.6884C984.594 19.7497 984.562 19.8058 984.517 19.8502L978.505 18.9459ZM981.962 22.4775L984.565 22.8697C984.62 22.878 984.671 22.9013 984.713 22.937C984.755 22.9727 984.787 23.0194 984.803 23.0719C984.82 23.1244 984.823 23.1806 984.81 23.2343C984.797 23.2879 984.769 23.337 984.73 23.3758L982.604 25.4844H979.666C979.608 25.4845 979.55 25.4671 979.501 25.4342C979.451 25.4014 979.413 25.3547 979.39 25.3001C979.368 25.2454 979.362 25.1854 979.374 25.1274C979.386 25.0695 979.414 25.0163 979.456 24.9747L981.962 22.4775ZM983.201 24.9747L987.425 20.7695C987.464 20.7306 987.491 20.6816 987.504 20.6279C987.517 20.5743 987.514 20.5182 987.497 20.4658C987.48 20.4134 987.449 20.3668 987.407 20.3312C987.364 20.2955 987.314 20.2723 987.259 20.264L984.59 19.8592L985.047 19.4037C985.054 19.3972 985.062 19.3922 985.071 19.3893C985.08 19.3864 985.089 19.3856 985.099 19.387L987.796 19.7925C988.006 19.8239 988.196 19.9295 988.335 20.0898C988.473 20.2502 988.548 20.4548 988.548 20.6664V24.9741L988.036 25.482H983.413C983.355 25.4817 983.297 25.4642 983.248 25.4313C983.2 25.3985 983.162 25.352 983.139 25.2976C983.117 25.2433 983.111 25.1835 983.122 25.1258C983.134 25.0682 983.162 25.0152 983.204 24.9735L983.201 24.9747Z" fill="#FAFAFA"/>
</g>
<defs>
<clipPath id="clip0_1848_84">
<rect width="992" height="38" fill="white"/>
</clipPath>
</defs>
</svg>
