<svg width="992" height="38" viewBox="0 0 992 38" fill="none" xmlns="http://www.w3.org/2000/svg">
<path d="M20.002 17.0239C20.4943 15.5457 20.3249 13.9272 19.5375 12.5831C18.3535 10.5211 15.9728 9.46063 13.6483 9.95962C12.6142 8.79447 11.1281 8.13182 9.57058 8.14171C7.1937 8.13597 5.08547 9.6661 4.35422 11.9278C2.8276 12.2405 1.50995 13.1963 0.738825 14.5506C-0.454396 16.6069 -0.182571 19.1985 1.41137 20.9625C0.919085 22.4406 1.0885 24.0591 1.8759 25.4032C3.05986 27.4652 5.44056 28.5257 7.76511 28.0267C8.79913 29.1919 10.2852 29.8545 11.8428 29.8446C14.2209 29.8507 16.3301 28.3196 17.0607 26.0563C18.5874 25.7436 19.905 24.7878 20.6761 23.4334C21.8681 21.3772 21.5956 18.7869 20.002 17.0239ZM11.8447 28.4255C10.8933 28.4268 9.97193 28.0937 9.24132 27.4843C9.27418 27.4665 9.33193 27.4346 9.36958 27.4116L13.6907 24.9154C13.9115 24.7897 14.0474 24.5546 14.0458 24.3006V18.2085L15.8723 19.2632C15.8918 19.2728 15.9052 19.2916 15.9077 19.3133V24.3587C15.9052 26.6019 14.0882 28.4204 11.8447 28.4255ZM3.10613 24.6933C2.62947 23.8699 2.45783 22.9051 2.62086 21.9678C2.65308 21.9869 2.70892 22.0214 2.74912 22.0443L7.07024 24.5405C7.28942 24.6688 7.56092 24.6688 7.78011 24.5405L13.0558 21.4943V23.6035C13.0571 23.6255 13.0472 23.6462 13.0296 23.6596L8.6613 26.1817C6.71642 27.3022 4.23107 26.6363 3.10613 24.6933ZM1.96937 15.2596C2.44379 14.4352 3.19322 13.8038 4.08623 13.4764C4.08623 13.5138 4.08399 13.5795 4.08399 13.6254V18.6175C4.0824 18.8714 4.21799 19.1063 4.43877 19.232L9.71446 22.2779L7.88794 23.3323C7.86976 23.3444 7.84647 23.3463 7.82637 23.3381L3.45771 20.8138C1.51601 19.6888 0.850172 17.2048 1.96937 15.2596ZM16.9759 18.7518L11.6999 15.7056L13.5264 14.6515C13.5446 14.6393 13.5679 14.6374 13.588 14.646L17.9566 17.1681C19.9021 18.2917 20.5683 20.78 19.4446 22.7252C18.9693 23.5483 18.2205 24.179 17.3281 24.5077V19.3663C17.3303 19.1126 17.1957 18.8778 16.9759 18.7518ZM18.7938 16.0157C18.7616 15.9959 18.7057 15.9621 18.6655 15.9391L14.3441 13.4429C14.1249 13.315 13.8537 13.315 13.6342 13.4429L8.35853 16.4892V14.38C8.35725 14.3579 8.36714 14.3372 8.38469 14.3238L12.753 11.8037C14.6992 10.6816 17.1865 11.3494 18.3085 13.2955C18.7826 14.118 18.9543 15.0803 18.7938 16.0157ZM7.36535 19.7753L5.53851 18.7205C5.51905 18.711 5.50565 18.6921 5.5031 18.6705V13.6254C5.50469 11.379 7.32675 9.5589 9.57345 9.5605C10.5236 9.56113 11.4434 9.89421 12.1733 10.502C12.1405 10.5199 12.083 10.5518 12.0451 10.5747L7.72395 13.0709C7.50318 13.1963 7.36726 13.4314 7.36886 13.6854L7.36535 19.7753ZM8.35757 17.6361L10.7073 16.2789L13.0571 17.6352V20.3486L10.7073 21.7049L8.35757 20.3486V17.6361Z" fill="#222222"/>
<path d="M51.4136 18.9931C51.4136 13.1958 56.1132 8.49609 61.9106 8.49609C66.1732 8.49609 69.8423 11.0368 71.4863 14.6864L57.6038 28.5689C57.0081 28.3005 56.4419 27.9782 55.9115 27.6081L64.5265 18.9931H61.9106L54.4881 26.4157C52.5885 24.5161 51.4136 21.8918 51.4136 18.9931Z" fill="#222222"/>
<path d="M72.4077 18.9968L61.9142 29.4902C67.7087 29.4883 72.4057 24.7913 72.4077 18.9968Z" fill="#222222"/>
<path fill-rule="evenodd" clip-rule="evenodd" d="M77.9733 11.6868V26.0278H79.9785V21.5825H82.9733C85.6961 21.5548 87.9134 19.4954 87.9134 16.793C87.9134 13.7953 85.7556 11.6868 82.9844 11.6868H77.9733ZM85.9941 16.6598C85.9941 18.3399 84.6225 19.8165 82.9495 19.8253C82.4294 19.8251 81.9094 19.8252 81.3895 19.8253C80.9191 19.8254 80.4487 19.8255 79.9785 19.8253V13.4556L82.9347 13.4557C84.6142 13.4557 85.9941 14.891 85.9941 16.6598Z" fill="#222222"/>
<path d="M168.411 26.0282V11.6871L169.642 11.6869C170.016 11.6868 170.268 11.6868 170.427 11.6869V26.0282H168.411Z" fill="#222222"/>
<path d="M90.9693 26.0282V11.6951C90.6136 11.6949 90.3007 11.695 89.7342 11.695L88.9538 11.695V26.0282H90.9693Z" fill="#222222"/>
<path fill-rule="evenodd" clip-rule="evenodd" d="M103.387 26.0282V15.2917H101.371V16.8033H101.332C100.499 15.5824 99.1812 15.001 97.6116 15.001C94.4527 15.001 91.9914 17.4041 91.9914 20.8343C91.9914 23.9351 94.5495 26.2995 97.6889 26.2995C99.22 26.2995 100.577 25.6406 101.332 24.3615H101.371V26.0282H103.387ZM97.6695 24.4584C95.6542 24.4584 94.0069 22.6948 94.0069 20.6793C94.0069 18.5669 95.6542 16.8421 97.6695 16.8421C99.8984 16.8421 101.41 18.5863 101.41 20.6793C101.41 22.7142 99.7629 24.4584 97.6695 24.4584Z" fill="#222222"/>
<path d="M114.632 26.0282V19.594C114.632 16.6289 112.733 15.001 110.155 15.001C108.915 15.001 107.81 15.408 107.016 16.4351H106.977V15.2917H104.962V26.0282H107.113V20.1561C107.113 18.1406 108.179 16.8421 109.942 16.8421C111.725 16.8421 112.616 17.908 112.616 20.1754V26.0282H114.632Z" fill="#222222"/>
<path fill-rule="evenodd" clip-rule="evenodd" d="M126.574 21.4552C126.621 21.1201 126.621 20.8305 126.621 20.5243C126.621 17.4429 124.218 15.001 121.059 15.001C118.21 15.001 115.652 17.3654 115.652 20.7568C115.652 23.625 118.094 26.2995 121.117 26.2995C123.423 26.2995 125.439 24.8654 126.272 22.6561H124.257C123.637 23.7995 122.455 24.4584 121.194 24.4584C119.563 24.4584 118.16 23.3366 117.681 21.5827H126.553C126.561 21.5417 126.568 21.4986 126.574 21.4552ZM117.684 19.8255C117.916 18.0676 119.517 16.8421 121.117 16.8421C122.792 16.8421 124.358 18.0851 124.589 19.8255H117.684Z" fill="#222222"/>
<path d="M141.286 15.2709H143.53C143.188 13.5101 141.178 11.6871 138.474 11.6871C135.646 11.6871 133.478 13.3043 133.478 15.7337C133.478 17.6951 134.88 18.8984 137.144 19.5108L138.81 19.9651C140.317 20.3642 141.484 20.8953 141.484 22.1478C141.484 23.5242 140.17 24.4327 138.36 24.4327C136.916 24.4327 135.686 23.866 135.33 22.6808H133.09C133.458 24.853 135.39 26.2977 138.374 26.2977C141.684 26.2977 143.59 24.5565 143.59 22.1684C143.59 19.629 141.322 18.6093 139.533 18.1688L138.156 17.811C137.055 17.5288 135.591 16.9587 135.598 15.6098C135.598 14.4124 136.692 13.4556 138.426 13.4556C139.91 13.4556 141 14.1616 141.286 15.2709Z" fill="#222222"/>
<path d="M155.053 22.6808C154.16 24.9804 152.154 26.2995 149.836 26.2995C146.755 26.2995 144.332 23.8188 144.332 20.7568C144.332 17.5204 146.677 15.001 149.817 15.001C152.184 15.001 154.351 16.4401 155.064 18.6472H152.792C152.185 17.5142 151.246 16.8421 149.875 16.8421C147.762 16.8421 146.348 18.4506 146.348 20.6405C146.348 22.7723 147.801 24.4584 149.836 24.4584C151.137 24.4584 152.195 23.8004 152.781 22.6808H155.053Z" fill="#222222"/>
<path fill-rule="evenodd" clip-rule="evenodd" d="M166.834 15.2917V26.0282H164.818V24.3615H164.779C164.023 25.6406 162.667 26.2995 161.136 26.2995C157.997 26.2995 155.438 23.9351 155.438 20.8343C155.438 17.4041 157.899 15.001 161.058 15.001C162.628 15.001 163.946 15.5824 164.779 16.8033H164.818V15.2917H166.834ZM157.454 20.6793C157.454 22.6948 159.101 24.4584 161.117 24.4584C163.21 24.4584 164.857 22.7142 164.857 20.6793C164.857 18.5863 163.345 16.8421 161.117 16.8421C159.101 16.8421 157.454 18.5669 157.454 20.6793Z" fill="#222222"/>
<path fill-rule="evenodd" clip-rule="evenodd" d="M182.375 21.3965C182.414 21.086 182.414 20.8127 182.414 20.5244V20.5243C182.414 20.4761 182.413 20.4282 182.412 20.3804C182.402 19.993 182.355 19.6163 182.273 19.254C182.121 18.5874 181.853 17.9693 181.487 17.4226C180.505 15.9549 178.826 15.001 176.852 15.001C174.003 15.001 171.445 17.3654 171.445 20.7568C171.445 21.1154 171.483 21.4709 171.555 21.8185C172.064 24.2519 174.265 26.2995 176.91 26.2995C179.216 26.2995 181.232 24.8654 182.065 22.6561H180.049C179.972 22.799 179.885 22.9344 179.792 23.0618C179.133 23.9539 178.089 24.4584 176.987 24.4584C175.356 24.4584 173.952 23.3366 173.474 21.5827H182.346C182.349 21.5661 182.352 21.5492 182.355 21.532H182.356C182.363 21.486 182.369 21.4409 182.375 21.3965ZM173.506 19.643C173.821 17.9833 175.366 16.8421 176.91 16.8421C178.585 16.8421 180.15 18.0851 180.381 19.8255H173.477C173.485 19.764 173.495 19.7032 173.506 19.643Z" fill="#222222"/>
<path d="M130.209 15.2937H132.461V17.0523H130.209V23.0549C130.209 24.1086 130.72 24.4021 131.291 24.4556C131.331 24.4567 131.366 24.458 131.397 24.4597C131.744 24.4783 132.016 24.4254 132.182 24.3708C132.418 24.9068 132.738 25.3976 133.134 25.8289C132.436 26.2492 131.606 26.3287 130.98 26.2912C130.678 26.2754 130.384 26.2252 130.108 26.1403C128.874 25.7647 128.486 24.8788 128.347 24.5157L128.356 24.5154C128.25 24.2103 128.192 23.8657 128.194 23.4815V17.0523H126.61V15.2937H128.194V11.6871H130.209V15.2937Z" fill="#222222"/>
<path d="M223.509 15.2942C222.528 15.2942 221.587 15.6838 220.894 16.3774C220.2 17.071 219.81 18.0117 219.81 18.9926C219.81 19.9734 220.2 20.9141 220.894 21.6077C221.587 22.3013 222.528 22.6909 223.509 22.6909C224.49 22.6909 225.43 22.3013 226.124 21.6077C226.817 20.9141 227.207 19.9734 227.207 18.9926C227.207 18.0117 226.817 17.071 226.124 16.3774C225.43 15.6838 224.49 15.2942 223.509 15.2942ZM223.509 15.2942H219.81M223.509 15.2942C224.49 15.2942 225.43 14.9045 226.124 14.211C226.817 13.5174 227.207 12.5767 227.207 11.5958C227.207 10.615 226.817 9.67426 226.124 8.98069C225.43 8.28711 224.49 7.89746 223.509 7.89746H219.81M216.112 22.6909C215.131 22.6909 214.19 23.0806 213.497 23.7741C212.803 24.4677 212.414 25.4084 212.414 26.3893C212.414 27.3701 212.803 28.3108 213.497 29.0044C214.19 29.698 215.131 30.0876 216.112 30.0876C217.093 30.0876 218.033 29.698 218.727 29.0044C219.421 28.3108 219.81 27.3701 219.81 26.3893V22.6909M216.112 22.6909H219.81M216.112 22.6909C215.131 22.6909 214.19 22.3013 213.497 21.6077C212.803 20.9141 212.414 19.9734 212.414 18.9926C212.414 18.0117 212.803 17.071 213.497 16.3774C214.19 15.6838 215.131 15.2942 216.112 15.2942M219.81 22.6909V15.2942M219.81 7.89746V15.2942M219.81 7.89746H216.112C215.131 7.89746 214.19 8.28711 213.497 8.98069C212.803 9.67426 212.414 10.615 212.414 11.5958C212.414 12.5767 212.803 13.5174 213.497 14.211C214.19 14.9045 215.131 15.2942 216.112 15.2942M219.81 15.2942H216.112" stroke="#222222" stroke-width="1.36256"/>
<path d="M272.064 9.90722H283.94V10.8511H273.153V17.9552H283.296V18.899H273.153V26.6986H284.063V27.6425H272.064V9.90722ZM285.004 9.90722H286.265L291.857 17.7068L297.572 9.90722L305.345 0L292.574 18.5265L299.155 27.6425H297.844L291.857 19.3462L285.845 27.6425H284.558L291.189 18.5265L285.004 9.90722ZM299.625 10.8511V9.90722H313.159V10.8511H306.924V27.6425H305.835V10.8511H299.625ZM257.207 9.90722H258.568L277.332 37.9857L269.578 27.6425L258.345 11.2485L258.296 27.6425H257.207V9.90722ZM313.049 26.4137C312.827 26.4137 312.66 26.2414 312.66 26.0187C312.66 25.796 312.827 25.6237 313.049 25.6237C313.274 25.6237 313.438 25.796 313.438 26.0187C313.438 26.2414 313.274 26.4137 313.049 26.4137ZM314.119 25.3745H314.701C314.709 25.69 314.94 25.9021 315.278 25.9021C315.657 25.9021 315.872 25.6741 315.872 25.2472V22.543H316.465V25.2499C316.465 26.0187 316.02 26.4615 315.284 26.4615C314.593 26.4615 314.119 26.032 314.119 25.3745ZM317.24 25.34H317.828C317.878 25.7032 318.233 25.9339 318.744 25.9339C319.221 25.9339 319.57 25.6873 319.57 25.348C319.57 25.0563 319.348 24.8814 318.842 24.7621L318.35 24.6428C317.659 24.481 317.344 24.147 317.344 23.5849C317.344 22.9036 317.9 22.4502 318.734 22.4502C319.509 22.4502 320.076 22.9036 320.111 23.5478H319.533C319.478 23.1952 319.171 22.9752 318.726 22.9752C318.257 22.9752 317.945 23.2005 317.945 23.5452C317.945 23.8182 318.146 23.9747 318.644 24.0913L319.065 24.1947C319.848 24.3776 320.171 24.6958 320.171 25.2711C320.171 26.0028 319.605 26.4615 318.699 26.4615C317.852 26.4615 317.283 26.024 317.24 25.34Z" fill="#222222"/>
<path d="M391.99 8.49316C390.53 8.49316 389.348 9.66916 389.348 11.1165V18.9932C389.348 21.8879 386.973 24.2432 384.056 24.2432C381.138 24.2432 378.764 21.8879 378.764 18.9932V11.1165C378.764 9.66593 377.581 8.49316 376.121 8.49316C374.661 8.49316 373.478 9.66916 373.478 11.1165V18.9932C373.478 24.7827 378.224 29.4932 384.056 29.4932C389.887 29.4932 394.633 24.7827 394.633 18.9932V11.1165C394.636 9.66916 393.451 8.49316 391.99 8.49316ZM391.99 12.9225C390.986 12.9225 390.172 12.1149 390.172 11.1165C390.172 10.1182 390.986 9.31055 391.99 9.31055C392.995 9.31055 393.809 10.1182 393.809 11.1165C393.809 12.1149 392.995 12.9225 391.99 12.9225Z" fill="#222222"/>
<path d="M403.133 18.9932L397.069 25.0121C396.035 26.0362 396.035 27.7001 397.069 28.7242C398.103 29.7484 399.777 29.7484 400.807 28.7242L406.871 22.7053L412.936 28.7242C413.969 29.7484 415.643 29.7484 416.674 28.7242C417.707 27.7001 417.707 26.0362 416.674 25.0121L410.613 18.9932L416.677 12.9742C417.711 11.9501 417.711 10.2862 416.677 9.26209C415.643 8.23793 413.969 8.23793 412.939 9.26209L406.875 15.281L400.807 9.26209C399.773 8.23793 398.1 8.23793 397.069 9.26209C396.035 10.2862 396.035 11.9501 397.069 12.9742L403.133 18.9932ZM414.809 28.6758C413.805 28.6758 412.99 27.8681 412.99 26.8698C412.99 25.8715 413.805 25.0638 414.809 25.0638C415.814 25.0638 416.628 25.8715 416.628 26.8698C416.628 27.8649 415.814 28.6758 414.809 28.6758Z" fill="#222222"/>
<path d="M369.698 8.69347C368.71 8.28639 367.572 8.51255 366.816 9.26209L360.749 15.281L354.685 9.26209C353.929 8.51255 352.792 8.28639 351.803 8.69347C350.814 9.10055 350.171 10.0569 350.171 11.1165V26.8665C350.171 28.3172 351.354 29.4932 352.814 29.4932C354.274 29.4932 355.457 28.3172 355.457 26.8698V17.4521L358.878 20.8476C359.912 21.8718 361.586 21.8718 362.616 20.8476L366.038 17.4521V26.8665C366.038 28.3172 367.22 29.4899 368.68 29.4899C370.141 29.4899 371.323 28.3139 371.323 26.8665V11.1165C371.33 10.0569 370.687 9.10055 369.698 8.69347ZM368.684 28.6758C367.679 28.6758 366.865 27.8681 366.865 26.8698C366.865 25.8715 367.679 25.0638 368.684 25.0638C369.688 25.0638 370.503 25.8715 370.503 26.8698C370.506 27.8649 369.688 28.6758 368.684 28.6758Z" fill="#222222"/>
<path d="M476.336 21.0123C476.451 22.0812 477.423 23.9134 480.244 23.9134C482.703 23.9134 483.886 22.3484 483.886 20.8215C483.886 19.4473 482.951 18.3212 481.102 17.9395L479.768 17.6532C479.253 17.5578 478.91 17.2715 478.91 16.8134C478.91 16.279 479.444 15.8782 480.111 15.8782C481.178 15.8782 481.579 16.5844 481.655 17.1379L483.771 16.6608C483.657 15.6492 482.761 13.9506 480.092 13.9506C478.071 13.9506 476.584 15.3438 476.584 17.0234C476.584 18.3403 477.404 19.4282 479.215 19.829L480.454 20.1153C481.178 20.268 481.464 20.6116 481.464 21.0314C481.464 21.5277 481.064 21.9666 480.225 21.9666C479.12 21.9666 478.567 21.2795 478.51 20.5352L476.336 21.0123Z" fill="#222222"/>
<path d="M491.988 23.6271H494.409C494.371 23.3026 494.314 22.6537 494.314 21.9284V14.2368H491.778V19.6954C491.778 20.7833 491.13 21.5467 490.005 21.5467C488.823 21.5467 488.29 20.7069 488.29 19.6572V14.2368H485.754V20.1725C485.754 22.2147 487.05 23.8752 489.319 23.8752C490.31 23.8752 491.397 23.4935 491.912 22.6155C491.912 22.9972 491.95 23.4362 491.988 23.6271Z" fill="#222222"/>
<path d="M499.555 27.2533V22.7109C500.012 23.3407 500.966 23.8561 502.262 23.8561C504.912 23.8561 506.684 21.7566 506.684 18.9128C506.684 16.1262 505.102 14.0268 502.357 14.0268C500.947 14.0268 499.898 14.6566 499.479 15.3819V14.2367H497.02V27.2533H499.555ZM504.187 18.9319C504.187 20.6114 503.158 21.5848 501.861 21.5848C500.565 21.5848 499.517 20.5923 499.517 18.9319C499.517 17.2714 500.565 16.298 501.861 16.298C503.158 16.298 504.187 17.2714 504.187 18.9319Z" fill="#222222"/>
<path d="M508.12 21.0696C508.12 22.5392 509.34 23.8943 511.342 23.8943C512.733 23.8943 513.629 23.2454 514.106 22.501C514.106 22.8637 514.144 23.379 514.201 23.6271H516.527C516.47 23.3026 516.413 22.6346 516.413 22.1384V17.5196C516.413 15.6301 515.307 13.9506 512.333 13.9506C509.817 13.9506 508.463 15.5728 508.311 17.0425L510.56 17.5196C510.636 16.6989 511.246 15.9928 512.352 15.9928C513.42 15.9928 513.934 16.5462 513.934 17.2142C513.934 17.5387 513.763 17.8059 513.229 17.8823L510.922 18.2258C509.359 18.4548 508.12 19.39 508.12 21.0696ZM511.875 22.0048C511.056 22.0048 510.655 21.4704 510.655 20.9169C510.655 20.1916 511.17 19.829 511.818 19.7336L513.934 19.4091V19.829C513.934 21.4895 512.943 22.0048 511.875 22.0048Z" fill="#222222"/>
<path d="M521.428 23.6271V22.4819C521.923 23.2836 522.914 23.8561 524.211 23.8561C526.88 23.8561 528.634 21.7376 528.634 18.8938C528.634 16.1072 527.051 13.9887 524.306 13.9887C522.914 13.9887 521.885 14.5995 521.465 15.2674V9.80889H518.968V23.6271H521.428ZM526.098 18.9128C526.098 20.6306 525.068 21.5849 523.772 21.5849C522.495 21.5849 521.428 20.6115 521.428 18.9128C521.428 17.1951 522.495 16.2599 523.772 16.2599C525.068 16.2599 526.098 17.1951 526.098 18.9128Z" fill="#222222"/>
<path d="M530.069 21.0696C530.069 22.5392 531.289 23.8943 533.291 23.8943C534.682 23.8943 535.578 23.2454 536.055 22.501C536.055 22.8637 536.093 23.379 536.15 23.6271H538.476C538.419 23.3026 538.362 22.6346 538.362 22.1384V17.5196C538.362 15.6301 537.256 13.9506 534.282 13.9506C531.766 13.9506 530.412 15.5728 530.26 17.0425L532.509 17.5196C532.585 16.6989 533.195 15.9928 534.301 15.9928C535.369 15.9928 535.883 16.5462 535.883 17.2142C535.883 17.5387 535.712 17.8059 535.178 17.8823L532.871 18.2258C531.308 18.4548 530.069 19.39 530.069 21.0696ZM533.825 22.0048C533.005 22.0048 532.604 21.4704 532.604 20.9169C532.604 20.1916 533.119 19.829 533.767 19.7336L535.883 19.4091V19.829C535.883 21.4895 534.892 22.0048 533.825 22.0048Z" fill="#222222"/>
<path d="M540.116 21.0123C540.231 22.0812 541.203 23.9134 544.024 23.9134C546.483 23.9134 547.665 22.3484 547.665 20.8215C547.665 19.4473 546.731 18.3212 544.882 17.9395L543.548 17.6532C543.033 17.5578 542.69 17.2715 542.69 16.8134C542.69 16.279 543.224 15.8782 543.891 15.8782C544.959 15.8782 545.359 16.5844 545.435 17.1379L547.551 16.6608C547.437 15.6492 546.541 13.9506 543.872 13.9506C541.851 13.9506 540.364 15.3438 540.364 17.0234C540.364 18.3403 541.184 19.4282 542.995 19.829L544.234 20.1153C544.959 20.268 545.244 20.6116 545.244 21.0314C545.244 21.5277 544.844 21.9666 544.005 21.9666C542.9 21.9666 542.347 21.2795 542.29 20.5352L540.116 21.0123Z" fill="#222222"/>
<path d="M551.516 17.8632C551.573 17.0043 552.298 16.0118 553.613 16.0118C555.062 16.0118 555.672 16.928 555.71 17.8632H551.516ZM555.958 20.3062C555.653 21.1459 555.005 21.7376 553.823 21.7376C552.564 21.7376 551.516 20.8406 551.459 19.6H558.169C558.169 19.5618 558.207 19.1801 558.207 18.8174C558.207 15.8019 556.473 13.9506 553.575 13.9506C551.173 13.9506 548.961 15.8973 548.961 18.8938C548.961 22.0621 551.23 23.9134 553.804 23.9134C556.11 23.9134 557.597 22.5583 558.074 20.936L555.958 20.3062Z" fill="#222222"/>
<path d="M459.604 29.3172C459.058 30.0043 457.952 29.6278 457.939 28.7505L457.746 15.9178H466.375C467.938 15.9178 468.81 17.723 467.838 18.947L459.604 29.3172Z" fill="#222222"/>
<path d="M456.095 8.66837C456.64 7.98116 457.747 8.3577 457.76 9.23509L457.844 22.0677H449.323C447.76 22.0677 446.889 20.2626 447.861 19.0386L456.095 8.66837Z" fill="#222222"/>
<path d="M592.35 7.58789H607.459C609.749 7.58789 611.602 9.43996 611.602 11.7307V26.2548C611.602 28.5455 609.749 30.3976 607.459 30.3976H592.35C590.059 30.3976 588.207 28.5455 588.207 26.2548V11.7307C588.207 9.43996 590.059 7.58789 592.35 7.58789Z" fill="#222222"/>
<path d="M593.763 23.5745V13.5343C593.763 13.4661 593.793 13.4271 593.861 13.4271C594.026 13.4271 594.182 13.4271 594.407 13.4174C594.641 13.4076 594.884 13.4076 595.147 13.3979C595.411 13.3881 595.693 13.3881 595.996 13.3784C596.298 13.3686 596.59 13.3686 596.883 13.3686C597.682 13.3686 598.345 13.4661 598.891 13.6708C599.378 13.8365 599.826 14.1094 600.197 14.4701C600.509 14.782 600.752 15.1622 600.908 15.5813C601.055 15.9907 601.133 16.4099 601.133 16.8485C601.133 17.6869 600.938 18.3789 600.548 18.9248C600.158 19.4707 599.612 19.8801 598.978 20.114C598.315 20.3577 597.584 20.4455 596.785 20.4455C596.551 20.4455 596.395 20.4455 596.298 20.4357C596.2 20.426 596.064 20.426 595.879 20.426V23.555C595.888 23.6232 595.84 23.6817 595.771 23.6914H593.88C593.802 23.6914 593.763 23.6525 593.763 23.5647V23.5745ZM595.888 15.3182V18.5934C596.025 18.6031 596.151 18.6129 596.268 18.6129H596.785C597.165 18.6129 597.545 18.5544 597.906 18.4374C598.218 18.3497 598.491 18.1645 598.705 17.9208C598.91 17.6771 599.008 17.3457 599.008 16.9168C599.017 16.6146 598.939 16.3124 598.783 16.0492C598.618 15.7958 598.384 15.6008 598.101 15.4936C597.74 15.3474 597.35 15.2889 596.951 15.2987C596.697 15.2987 596.473 15.2987 596.288 15.3084C596.093 15.2987 595.957 15.3084 595.888 15.3182Z" fill="#FAFAFA"/>
<path d="M602.536 15.8933H604.242C604.34 15.8933 604.418 15.9615 604.447 16.0493C604.476 16.1272 604.496 16.2052 604.505 16.293C604.525 16.3904 604.544 16.4977 604.554 16.5951C604.564 16.7024 604.573 16.8193 604.573 16.946C604.866 16.6049 605.217 16.3222 605.617 16.1077C606.065 15.8543 606.582 15.7276 607.098 15.7276C607.166 15.7178 607.225 15.7666 607.235 15.8348V17.7746C607.235 17.8526 607.186 17.8818 607.079 17.8818C606.728 17.8721 606.367 17.9013 606.026 17.9793C605.743 18.0378 605.47 18.1255 605.207 18.2425C605.022 18.3302 604.846 18.4472 604.71 18.6032V23.5745C604.71 23.672 604.671 23.711 604.583 23.711H602.663C602.585 23.7207 602.517 23.672 602.507 23.594V18.1548C602.507 17.9208 602.507 17.6771 602.497 17.4237C602.487 17.1702 602.487 16.9168 602.478 16.6634C602.478 16.4392 602.458 16.2247 602.439 16.0005C602.429 15.9518 602.458 15.903 602.507 15.8933C602.507 15.8835 602.526 15.8835 602.536 15.8933Z" fill="#FAFAFA"/>
<path d="M647.448 28.5894C644.31 28.5894 641.602 26.739 641.602 22.9842H644.712C644.712 24.7545 646 25.6664 647.448 25.6664C648.869 25.6664 650.13 24.8351 650.13 22.7701V9.26562H653.268V23.0376C653.268 26.9803 650.506 28.5894 647.448 28.5894Z" fill="#222222"/>
<path d="M657.571 13.216C656.499 13.216 655.587 12.3309 655.587 11.2316C655.587 10.1591 656.499 9.27386 657.571 9.27386C658.671 9.27386 659.529 10.1591 659.529 11.2316C659.529 12.3309 658.671 13.216 657.571 13.216ZM656.096 14.9901H659.046V28.5027H656.096V14.9901Z" fill="#222222"/>
<path d="M666.505 28.5553C663.93 28.5553 661.919 27.1336 661.919 24.1033V11.2833H664.869V15.0114H668.115V17.6396H664.869V23.6201C664.869 25.2831 665.593 25.8731 667.122 25.8731C667.686 25.8731 668.276 25.7924 668.705 25.6318V28.26C668.114 28.448 667.417 28.5553 666.505 28.5553Z" fill="#222222"/>
<path d="M669.863 24.1033C669.863 27.1336 671.874 28.5553 674.449 28.5553C675.361 28.5553 676.058 28.448 676.649 28.26V25.6318C676.22 25.7924 675.63 25.8731 675.066 25.8731C673.537 25.8731 672.813 25.2831 672.813 23.6201V17.6396H676.624V15.0114H672.813V11.2833H669.863V24.1033Z" fill="#222222"/>
<path d="M684.084 14.7746C687.597 14.7746 690.547 17.1077 690.547 21.4257C690.547 21.7209 690.547 21.9622 690.521 22.3909H679.98C680.114 24.59 681.885 26.0384 684.11 26.0384C685.987 26.0384 687.248 25.1799 687.946 24.0001L690.199 25.6092C688.992 27.5135 686.9 28.7201 684.084 28.7201C680.007 28.7201 677.084 25.8238 677.084 21.7471C677.083 17.8054 680.007 14.7746 684.084 14.7746ZM680.114 20.2458H687.57C687.248 18.3148 685.693 17.2689 683.976 17.2689C682.259 17.2689 680.516 18.2614 680.114 20.2458Z" fill="#222222"/>
<path d="M692.322 15.0632H695.272V17.4501C695.782 15.9216 697.284 14.9292 698.813 14.9292C699.188 14.9292 699.564 14.9559 699.966 15.0365V18.0673C699.456 17.9066 699.027 17.8259 698.491 17.8259C696.801 17.8259 695.272 19.2472 695.272 21.9293V28.4731H692.322V15.0632Z" fill="#222222"/>
<path d="M814.116 15.8976H811.57V24.8479H814.116V15.8976Z" fill="#222222"/>
<path d="M814.116 12.9478H811.57V14.9268H814.116V12.9478Z" fill="#222222"/>
<path d="M758.579 12.9478H755.918V24.8479H764.045V22.5664H758.579V12.9478Z" fill="#222222"/>
<path d="M769.306 15.1529C766.472 15.1529 764.23 17.3393 764.23 20.0947C764.23 22.8501 766.472 25.0423 769.306 25.0423C772.139 25.0423 774.4 22.8558 774.4 20.099C774.4 17.3422 772.156 15.1529 769.306 15.1529ZM769.306 22.6801C767.88 22.6801 766.815 21.597 766.815 20.0875C766.815 18.578 767.88 17.5035 769.306 17.5035C770.732 17.5035 771.796 18.6054 771.796 20.0875C771.796 21.5696 770.732 22.6801 769.306 22.6801Z" fill="#222222"/>
<path d="M785.08 22.8328C784.624 22.8328 784.225 22.5663 784.225 21.7497V17.9486H786.653V15.8976H784.225V13.3179H781.678V15.8976H778.334V13.3179H775.787V15.8976H774.4V17.9486H775.787V21.7871C775.787 23.9347 776.814 25.038 778.714 25.038C779.572 25.0397 780.411 24.7892 781.128 24.3178L780.408 22.4367C780.047 22.6805 779.626 22.8186 779.191 22.8357C778.734 22.8357 778.335 22.5692 778.335 21.7525V17.9486H781.68V21.7871C781.68 23.9347 782.705 25.038 784.606 25.038C785.464 25.0394 786.304 24.7889 787.02 24.3178L786.3 22.4367C785.939 22.6804 785.516 22.8176 785.08 22.8328Z" fill="#222222"/>
<path d="M801.18 19.425C800.792 16.7531 798.463 14.8634 795.903 15.2365C795.259 15.3243 794.64 15.5398 794.08 15.8703C793.521 16.2009 793.033 16.6397 792.646 17.1612C792.259 17.6826 791.979 18.2762 791.824 18.9071C791.669 19.538 791.642 20.1934 791.743 20.835C792.194 23.939 794.863 25.3764 797.608 24.976C798.852 24.8012 800.016 24.2649 800.957 23.4335L799.753 21.7641C799.066 22.3581 798.222 22.7412 797.322 22.8674C796.08 23.0475 794.918 22.5793 794.428 21.3291L801.255 20.3353C801.247 20.0307 801.222 19.7268 801.18 19.425ZM794.146 19.6598C794.218 18.4398 795.045 17.5122 796.135 17.3552C796.689 17.2691 797.255 17.3878 797.728 17.6893C798.201 17.9908 798.547 18.4542 798.703 18.9929L794.146 19.6598Z" fill="#222222"/>
<path d="M828.825 19.425C828.436 16.7531 826.106 14.8634 823.548 15.2365C822.904 15.3241 822.284 15.5395 821.725 15.87C821.165 16.2004 820.677 16.6393 820.29 17.1608C819.903 17.6823 819.623 18.276 819.468 18.9069C819.313 19.5379 819.286 20.1934 819.388 20.835C819.839 23.939 822.506 25.3764 825.253 24.976C826.496 24.8012 827.66 24.2648 828.6 23.4335L827.398 21.7641C826.71 22.3582 825.865 22.7414 824.965 22.8674C823.723 23.0475 822.561 22.5793 822.071 21.3291L828.9 20.3353C828.891 20.0307 828.866 19.7268 828.825 19.425ZM821.79 19.6598C821.862 18.4398 822.688 17.5122 823.779 17.3552C824.333 17.2687 824.899 17.3874 825.371 17.689C825.842 17.9906 826.188 18.4543 826.342 18.9929L821.79 19.6598Z" fill="#222222"/>
<path d="M818.297 12.9478H815.751V24.8465H818.297V12.9478Z" fill="#222222"/>
<path d="M834.098 18.8978C833.224 18.7077 832.426 18.5362 832.426 18.0048C832.426 17.6058 832.977 17.3393 833.567 17.3393C834.487 17.3539 835.391 17.5817 836.208 18.0048L837.064 16.1035C836.001 15.4534 834.773 15.1233 833.528 15.1529C831.742 15.1529 829.84 16.1798 829.84 18.1185C829.84 19.9435 831.38 20.5671 833.263 21.0641C834.079 21.2931 834.898 21.4255 834.898 21.9959C834.898 22.5663 833.928 22.7939 833.338 22.7939C832.262 22.8149 831.213 22.4581 830.373 21.7857L829.46 23.7459C829.993 24.24 831.304 25.0423 833.338 25.0423C835.106 25.0423 837.481 24.2631 837.481 21.9239C837.481 19.9809 835.72 19.2809 834.098 18.8978Z" fill="#222222"/>
<path d="M790.591 15.8976H788.045V24.8479H790.591V15.8976Z" fill="#222222"/>
<path d="M790.591 12.9478H788.045V14.9268H790.591V12.9478Z" fill="#222222"/>
<path d="M802.265 24.8479H804.921V19.9853H809.425V17.7283H804.921V15.225H810.393V12.9478H802.265V24.8479Z" fill="#222222"/>
<path d="M745.635 8.50391H735.273C732.342 8.50391 729.966 10.8802 729.966 13.8116V24.1734C729.966 27.1047 732.342 29.4811 735.273 29.4811H745.635C748.567 29.4811 750.943 27.1047 750.943 24.1734V13.8116C750.943 10.8802 748.567 8.50391 745.635 8.50391Z" fill="#222222"/>
<path d="M745.909 13.2022C742.298 13.2022 740.96 15.7805 739.884 17.8517L739.181 19.1768C738.042 21.3733 737.191 22.7085 734.997 22.7085C734.861 22.7085 734.726 22.7354 734.6 22.7875C734.474 22.8395 734.36 22.916 734.264 23.0123C734.167 23.1086 734.091 23.2228 734.039 23.3487C733.987 23.4745 733.96 23.6094 733.96 23.7456C733.96 24.0205 734.07 24.284 734.264 24.4784C734.458 24.6728 734.722 24.7822 734.997 24.7827C738.609 24.7827 739.947 22.2044 741.023 20.1332L741.725 18.8081C742.866 16.6115 743.717 15.2763 745.909 15.2763C746.045 15.2765 746.18 15.2498 746.306 15.1978C746.432 15.1458 746.547 15.0694 746.643 14.9731C746.74 14.8768 746.816 14.7624 746.868 14.6365C746.921 14.5106 746.947 14.3756 746.947 14.2393C746.947 13.9641 746.838 13.7003 746.643 13.5059C746.448 13.3115 746.184 13.2022 745.909 13.2022Z" fill="#FAFAFA"/>
<path d="M867.481 8.49316H881.481V15.4932H874.481L867.481 8.49316ZM867.481 15.4932H874.481L881.481 22.4932H874.481V29.4932L867.481 22.4932V15.4932Z" fill="#222222"/>
<path d="M977.39 25.0027L977.348 24.9604L977.133 25.175C976.931 25.3761 976.659 25.4891 976.374 25.4892H970.74C970.681 25.4891 970.623 25.4717 970.574 25.439C970.525 25.4063 970.487 25.3597 970.465 25.3053C970.442 25.2509 970.436 25.1911 970.447 25.1333C970.459 25.0755 970.487 25.0224 970.529 24.9807L974.135 21.3752L974.093 21.3329L973.668 21.7574C973.643 21.7823 973.611 21.7993 973.576 21.8062C973.542 21.8131 973.506 21.8096 973.473 21.796C973.441 21.7825 973.413 21.7596 973.393 21.7302C973.373 21.7008 973.363 21.6663 973.363 21.6309V12.8557L973.742 12.476H975.855V12.4724L979.205 9.12327L979.162 9.08094L978.977 9.26693C978.877 9.36657 978.759 9.4456 978.629 9.4995C978.498 9.55341 978.359 9.58113 978.218 9.5811H966.379L962.999 12.9624L963.041 13.0048L963.246 12.8027C963.447 12.6049 963.717 12.4938 963.998 12.4933L969.321 12.4843C969.38 12.4842 969.438 12.5016 969.487 12.5343C969.536 12.5669 969.574 12.6134 969.597 12.6679C969.619 12.7223 969.625 12.7822 969.614 12.8401C969.603 12.8979 969.574 12.9511 969.533 12.9928L965.976 16.5494L966.018 16.5918L966.439 16.1703C966.464 16.1453 966.496 16.1282 966.531 16.1213C966.566 16.1145 966.602 16.1181 966.634 16.1317C966.667 16.1453 966.695 16.1683 966.715 16.1978C966.734 16.2272 966.745 16.2619 966.744 16.2973V25.0522L966.307 25.4892H964.486L961.061 28.8777L961.104 28.92L961.283 28.7412C961.483 28.543 961.753 28.4317 962.035 28.4312H973.99L977.39 25.0027ZM970.127 12.4837L972.934 12.4789C972.993 12.479 973.051 12.4964 973.1 12.5291C973.149 12.5619 973.187 12.6084 973.209 12.6628C973.232 12.7172 973.238 12.7771 973.226 12.8348C973.215 12.8926 973.187 12.9457 973.145 12.9875L970.234 15.8996C970.192 15.9414 970.139 15.9699 970.081 15.9815C970.023 15.993 969.963 15.9871 969.909 15.9645C969.854 15.9419 969.807 15.9036 969.775 15.8545C969.742 15.8054 969.724 15.7476 969.725 15.6886V12.8867L970.127 12.4837ZM969.725 16.4922L970.38 15.8364V21.4175L969.725 22.0733V16.4922ZM969.874 22.0113C969.915 21.9695 969.968 21.941 970.026 21.9295C970.084 21.9179 970.144 21.9238 970.199 21.9463C970.253 21.9689 970.3 22.007 970.332 22.056C970.365 22.1051 970.383 22.1627 970.383 22.2217V25.0433L969.936 25.4904H967.113C967.054 25.4904 966.996 25.4729 966.947 25.4402C966.898 25.4075 966.86 25.361 966.838 25.3065C966.815 25.2521 966.809 25.1923 966.821 25.1345C966.832 25.0767 966.86 25.0236 966.902 24.9818L969.874 22.0113Z" fill="#222222"/>
<path d="M944.841 24.9753L944.799 24.933L944.564 25.1684C944.464 25.2681 944.346 25.3471 944.216 25.401C944.085 25.4549 943.946 25.4826 943.805 25.4826H937.516C937.457 25.4825 937.4 25.4649 937.351 25.4322C937.302 25.3994 937.264 25.3529 937.241 25.2985C937.219 25.2441 937.213 25.1843 937.224 25.1266C937.236 25.0689 937.264 25.0158 937.306 24.9741L945.318 16.9608L945.277 16.9184L944.994 17.2004C944.894 17.3007 944.775 17.38 944.644 17.434C944.512 17.4879 944.372 17.5152 944.23 17.5145C944.088 17.5138 943.948 17.485 943.817 17.4298C943.687 17.3745 943.569 17.2939 943.469 17.1926L941.524 15.2093C941.469 15.1536 941.439 15.0787 941.439 15.0007C941.439 14.9226 941.469 14.8477 941.524 14.792L947.187 9.12864L947.145 9.08631L946.959 9.2735C946.859 9.37321 946.74 9.45227 946.61 9.50618C946.48 9.56009 946.34 9.58777 946.199 9.58766H938.003L934.592 12.9988C934.55 13.0406 934.497 13.069 934.44 13.0806C934.382 13.0921 934.322 13.0863 934.267 13.0638C934.213 13.0412 934.166 13.003 934.133 12.954C934.1 12.905 934.083 12.8473 934.083 12.7884V9.09227H934.023V10.7978C934.023 10.8383 934.009 10.8776 933.984 10.9091C933.958 10.9407 933.923 10.9626 933.883 10.9714C933.844 10.9802 933.802 10.9753 933.766 10.9575C933.73 10.9398 933.7 10.9101 933.683 10.8735C933.206 9.84997 932.475 9.58111 932.475 9.58111L929.056 12.9606L929.098 13.003L929.249 12.8539C929.877 12.2351 930.946 12.5934 931.065 13.4668C931.091 13.6598 931.104 13.8544 931.103 14.0492V25.1231L927.361 28.8651L927.403 28.9068L927.579 28.731C927.78 28.5302 928.052 28.4173 928.336 28.4168H941.386L944.841 24.9753ZM941.056 21.1391L936.713 25.4826H934.993C934.934 25.4825 934.876 25.4649 934.827 25.4322C934.779 25.3994 934.74 25.3529 934.718 25.2985C934.695 25.2441 934.69 25.1843 934.701 25.1266C934.712 25.0689 934.741 25.0158 934.782 24.9741L937.368 22.3881C937.468 22.2882 937.547 22.1697 937.601 22.0393C937.655 21.9089 937.683 21.7691 937.683 21.628V18.633L938.338 17.9772L941.057 20.7194C941.112 20.7754 941.143 20.8509 941.143 20.9295C941.143 21.0081 941.112 21.0835 941.056 21.1391ZM937.681 17.8324V13.8787L939.073 12.4867L943.037 12.4766C943.096 12.4764 943.154 12.4937 943.203 12.5264C943.252 12.5591 943.291 12.6057 943.313 12.6602C943.336 12.7148 943.342 12.7749 943.331 12.8328C943.319 12.8907 943.291 12.944 943.249 12.9857L938.192 18.0428C938.15 18.0849 938.097 18.1138 938.039 18.1255C937.981 18.1374 937.92 18.1316 937.866 18.109C937.811 18.0865 937.764 18.0481 937.731 17.9988C937.699 17.9495 937.681 17.8915 937.681 17.8324ZM935.178 12.4968L938.266 12.4891C938.324 12.489 938.382 12.5064 938.431 12.539C938.48 12.5717 938.519 12.6182 938.541 12.6726C938.564 12.7271 938.57 12.787 938.559 12.8448C938.547 12.9027 938.519 12.9558 938.477 12.9976L934.595 16.8523C934.553 16.8936 934.5 16.9218 934.443 16.9331C934.385 16.9444 934.325 16.9384 934.271 16.9158C934.217 16.8933 934.17 16.8552 934.137 16.8063C934.105 16.7574 934.087 16.7 934.087 16.6412V13.71C934.087 13.631 934.119 13.5553 934.175 13.4996L935.178 12.4968ZM934.087 17.4698L934.701 16.8582V21.5308L934.086 22.1466L934.087 17.4698ZM934.703 22.3344V24.9735L934.191 25.4856H931.551C931.492 25.4856 931.435 25.4681 931.386 25.4354C931.337 25.4027 931.299 25.3562 931.276 25.3018C931.253 25.2474 931.247 25.1875 931.259 25.1297C931.27 25.0719 931.299 25.0188 931.34 24.9771L934.193 22.1239C934.235 22.0824 934.288 22.054 934.345 22.0423C934.403 22.0307 934.462 22.0363 934.517 22.0584C934.571 22.0806 934.618 22.1183 934.651 22.1669C934.684 22.2155 934.702 22.2727 934.702 22.3314L934.703 22.3344Z" fill="#222222"/>
<path d="M963.212 25.0027L963.17 24.9604L963.011 25.1202C962.384 25.7473 961.3 25.3873 961.189 24.5073C961.167 24.3264 961.156 24.1442 961.156 23.9619V9.08631H961.1V10.5683C961.1 10.6068 961.087 10.6443 961.064 10.6751C961.041 10.706 961.009 10.7286 960.972 10.7395C960.935 10.7505 960.895 10.7493 960.859 10.7361C960.823 10.7228 960.792 10.6983 960.771 10.6661C960.555 10.3326 960.259 10.0584 959.91 9.86869C959.56 9.67897 959.169 9.57969 958.772 9.57991H954.264L950.798 13.0459C950.757 13.0875 950.703 13.1158 950.646 13.1272C950.588 13.1386 950.528 13.1327 950.474 13.1101C950.419 13.0875 950.373 13.0493 950.34 13.0003C950.307 12.9513 950.29 12.8938 950.29 12.8349V9.08631H950.23V10.7978C950.23 10.8386 950.216 10.8781 950.191 10.9099C950.165 10.9417 950.13 10.9639 950.09 10.9727C950.05 10.9815 950.009 10.9765 949.972 10.9585C949.936 10.9404 949.906 10.9105 949.889 10.8735C949.412 9.84997 948.682 9.58111 948.682 9.58111L945.262 12.9606L945.305 13.003L945.456 12.8539C946.083 12.2351 947.153 12.5934 947.272 13.4668C947.298 13.6598 947.31 13.8544 947.309 14.0492V25.1291L943.563 28.8747L943.606 28.9164L943.794 28.7286C943.894 28.6315 944.012 28.5551 944.142 28.5039C944.272 28.4528 944.41 28.4278 944.549 28.4306H951.909L954.788 25.5136L955.271 25.0302L955.229 24.9878L955.043 25.1744C954.943 25.2741 954.825 25.3533 954.695 25.4073C954.564 25.4613 954.425 25.4891 954.284 25.4892H951.34C951.281 25.4891 951.224 25.4717 951.175 25.4389C951.125 25.4061 951.087 25.3595 951.065 25.305C951.042 25.2505 951.036 25.1905 951.048 25.1327C951.06 25.0748 951.088 25.0217 951.13 24.9801L957.67 18.4398C957.712 18.3982 957.765 18.37 957.822 18.3585C957.88 18.347 957.94 18.353 957.994 18.3755C958.049 18.398 958.095 18.4361 958.128 18.485C958.161 18.5339 958.178 18.5914 958.179 18.6502V25.0808C958.179 27.8386 959.788 28.4276 959.788 28.4276L963.212 25.0027ZM951.433 12.4933H954.565C954.624 12.4932 954.681 12.5106 954.731 12.5433C954.78 12.5761 954.818 12.6227 954.841 12.6772C954.863 12.7317 954.869 12.7917 954.858 12.8496C954.846 12.9075 954.818 12.9607 954.776 13.0024L950.798 16.9822C950.757 17.024 950.703 17.0525 950.646 17.064C950.588 17.0756 950.528 17.0697 950.473 17.0471C950.419 17.0245 950.372 16.9862 950.339 16.9371C950.306 16.888 950.289 16.8302 950.289 16.7712C950.289 15.6499 950.289 13.6391 950.289 13.6391L951.433 12.4933ZM950.287 17.5754L950.925 16.9381V21.5129L950.286 22.1526L950.287 17.5754ZM947.54 24.9824L950.418 22.1043C950.46 22.0627 950.513 22.0344 950.571 22.023C950.628 22.0115 950.688 22.0175 950.743 22.0401C950.797 22.0627 950.844 22.1009 950.876 22.1499C950.909 22.1988 950.926 22.2564 950.926 22.3153V24.9753C950.926 25.0543 950.895 25.13 950.839 25.1858L950.534 25.4916H947.75C947.691 25.4915 947.633 25.4739 947.584 25.441C947.535 25.4082 947.497 25.3616 947.475 25.3071C947.452 25.2526 947.446 25.1927 947.458 25.1349C947.47 25.0772 947.498 25.0241 947.54 24.9824ZM953.907 21.3996V13.9574L955.371 12.4933H957.107C957.391 12.4933 957.664 12.6063 957.865 12.8076C958.067 13.0088 958.18 13.2817 958.18 13.5663V17.8514L954.419 21.6124C954.377 21.6554 954.323 21.6848 954.265 21.697C954.206 21.7091 954.145 21.7032 954.09 21.6803C954.035 21.6573 953.988 21.6183 953.955 21.5682C953.922 21.5182 953.906 21.4594 953.907 21.3996Z" fill="#222222"/>
<path d="M929.986 16.4421L920.949 25.479H919.135C919.076 25.479 919.019 25.4615 918.97 25.4287C918.921 25.3959 918.882 25.3493 918.86 25.2948C918.837 25.2403 918.832 25.1804 918.843 25.1226C918.855 25.0647 918.883 25.0116 918.925 24.9699L921.479 22.4143C921.68 22.213 921.792 21.9403 921.792 21.656V14.085C921.792 14.0458 921.8 14.0069 921.815 13.9707C921.83 13.9345 921.852 13.9016 921.88 13.8739L923.26 12.4939C923.543 12.4959 923.814 12.6099 924.014 12.8109C924.213 13.0119 924.325 13.2837 924.325 13.5669V15.722C924.325 15.816 924.307 15.909 924.271 15.9958C924.235 16.0827 924.182 16.1616 924.116 16.2281L923.92 16.4242L923.956 16.4719L927.305 13.1252V9.08869H927.245V10.5701C927.245 10.6084 927.232 10.6457 927.21 10.6763C927.186 10.707 927.154 10.7295 927.118 10.7404C927.081 10.7514 927.042 10.7502 927.005 10.7372C926.969 10.7241 926.939 10.6998 926.917 10.6679C926.701 10.3347 926.405 10.0608 926.055 9.87125C925.706 9.68166 925.315 9.58233 924.918 9.58229H922.116L919.666 12.0414L918.712 12.9952C918.67 13.0368 918.617 13.0651 918.559 13.0765C918.502 13.088 918.442 13.082 918.387 13.0594C918.333 13.0368 918.286 12.9986 918.254 12.9497C918.221 12.9007 918.204 12.8431 918.204 12.7842V9.08809H918.144V10.7978C918.144 10.8386 918.13 10.8781 918.105 10.9099C918.079 10.9417 918.044 10.9639 918.004 10.9727C917.964 10.9815 917.923 10.9765 917.886 10.9585C917.849 10.9404 917.82 10.9105 917.803 10.8735C917.326 9.84996 916.596 9.5811 916.596 9.5811L913.177 12.9606L913.219 13.003L913.369 12.8539C913.998 12.2345 915.067 12.5946 915.186 13.4691C915.211 13.6614 915.224 13.8552 915.223 14.0492V25.1112L911.481 28.8526L911.524 28.8949L911.67 28.7483C911.871 28.5471 912.143 28.4336 912.428 28.4329H923.245L929.139 22.5025C929.34 22.3013 929.453 22.0286 929.453 21.7442V17.4955C929.453 17.2111 929.566 16.9383 929.768 16.7372L930.021 16.4838L929.986 16.4421ZM918.21 16.7074V13.583L919.3 12.4933H922.455C922.514 12.4932 922.572 12.5106 922.621 12.5433C922.67 12.5761 922.709 12.6227 922.731 12.6772C922.754 12.7317 922.76 12.7917 922.748 12.8496C922.737 12.9075 922.708 12.9607 922.666 13.0024L918.718 16.9507C918.676 16.9924 918.623 17.0209 918.565 17.0325C918.507 17.044 918.447 17.0381 918.393 17.0155C918.338 16.9929 918.292 16.9546 918.259 16.9055C918.226 16.8564 918.209 16.7986 918.209 16.7396L918.21 16.7074ZM918.21 17.542L918.813 16.9381V21.5248L918.209 22.1293L918.21 17.542ZM918.329 25.4772H915.665C915.606 25.4774 915.548 25.46 915.499 25.4272C915.45 25.3944 915.412 25.3478 915.389 25.2933C915.367 25.2388 915.361 25.1788 915.372 25.1209C915.384 25.063 915.412 25.0098 915.454 24.9682L918.304 22.1186C918.346 22.0768 918.399 22.0484 918.457 22.0368C918.515 22.0253 918.575 22.0311 918.629 22.0536C918.684 22.0762 918.73 22.1144 918.763 22.1634C918.796 22.2124 918.813 22.27 918.813 22.3291V24.9896L918.329 25.4772ZM926.48 25.0093C926.48 25.0567 926.461 25.1021 926.427 25.1357L926.139 25.4248C926.105 25.4584 926.06 25.4772 926.012 25.4772H921.751C921.692 25.4774 921.634 25.46 921.585 25.4272C921.536 25.3944 921.498 25.3478 921.475 25.2933C921.453 25.2388 921.447 25.1788 921.458 25.1209C921.47 25.063 921.498 25.0098 921.54 24.9682L925.971 20.5376C926.013 20.496 926.066 20.4677 926.124 20.4563C926.182 20.4449 926.242 20.4508 926.296 20.4734C926.35 20.496 926.397 20.5342 926.43 20.5832C926.462 20.6322 926.48 20.6897 926.48 20.7486V25.0093Z" fill="#222222"/>
<path d="M989.864 16.6669L985.725 16.0486C985.67 16.0404 985.619 16.0172 985.577 15.9816C985.535 15.9461 985.503 15.8995 985.486 15.8471C985.469 15.7946 985.467 15.7385 985.48 15.6848C985.492 15.6312 985.52 15.5821 985.559 15.5431L991.992 9.10776L991.95 9.06543L991.748 9.26693C991.649 9.36656 991.531 9.44559 991.4 9.4995C991.27 9.5534 991.13 9.58113 990.99 9.58109H983.067L976.705 15.9431V16.4022C976.705 16.8818 976.877 17.3454 977.19 17.7089C977.503 18.0723 977.936 18.3113 978.41 18.3826C978.457 18.3897 978.5 18.4095 978.536 18.4398C978.572 18.4701 978.598 18.5098 978.613 18.5543C978.628 18.599 978.63 18.6467 978.619 18.6924C978.608 18.738 978.585 18.7798 978.552 18.813L975.404 21.9606L975.446 22.0029L975.633 21.8163C975.712 21.7372 975.809 21.6777 975.915 21.6428C976.022 21.6077 976.135 21.5982 976.245 21.6148L981.307 22.3773C981.361 22.3856 981.412 22.4089 981.454 22.4445C981.496 22.4801 981.527 22.5267 981.545 22.5791C981.562 22.6315 981.564 22.6876 981.552 22.7412C981.539 22.7949 981.511 22.8439 981.472 22.8828L975.456 28.8777L975.498 28.92L975.672 28.7459C975.874 28.5458 976.146 28.4335 976.429 28.4335H985.157C985.172 28.4335 985.187 28.4273 985.198 28.4162L991.932 21.743V19.0687C991.932 18.487 991.724 17.9246 991.344 17.4838C990.964 17.043 990.439 16.7531 989.864 16.6669ZM985.067 15.9515L982.548 15.5747C982.493 15.5666 982.442 15.5435 982.4 15.5079C982.357 15.4723 982.326 15.4257 982.309 15.3734C982.292 15.3209 982.289 15.2647 982.302 15.211C982.314 15.1574 982.342 15.1082 982.381 15.0692L984.967 12.4825L987.822 12.4754C987.881 12.4753 987.939 12.4926 987.988 12.5253C988.037 12.558 988.075 12.6045 988.098 12.6589C988.121 12.7133 988.127 12.7733 988.115 12.8311C988.104 12.889 988.075 12.9421 988.034 12.9839L985.067 15.9515ZM980.406 15.2546C980.246 15.2309 980.101 15.1507 979.995 15.0287C979.89 14.9067 979.833 14.751 979.832 14.5899V12.879L980.221 12.495L984.161 12.4849C984.22 12.4848 984.277 12.5022 984.327 12.5349C984.376 12.5675 984.414 12.614 984.437 12.6684C984.459 12.7229 984.465 12.7828 984.454 12.8407C984.443 12.8985 984.414 12.9517 984.372 12.9934L981.89 15.4764L980.406 15.2546ZM978.505 18.9459L978.981 18.469L984.328 19.2726C984.39 19.282 984.449 19.3085 984.497 19.3492C984.545 19.3899 984.581 19.4431 984.601 19.5031C984.62 19.563 984.623 19.6271 984.608 19.6884C984.594 19.7497 984.562 19.8058 984.517 19.8502L978.505 18.9459ZM981.962 22.4775L984.565 22.8697C984.62 22.878 984.671 22.9013 984.713 22.937C984.755 22.9727 984.787 23.0194 984.803 23.0719C984.82 23.1244 984.823 23.1806 984.81 23.2343C984.797 23.2879 984.769 23.337 984.73 23.3758L982.604 25.4844H979.666C979.608 25.4845 979.55 25.4671 979.501 25.4342C979.451 25.4014 979.413 25.3547 979.39 25.3001C979.368 25.2454 979.362 25.1854 979.374 25.1274C979.386 25.0695 979.414 25.0163 979.456 24.9747L981.962 22.4775ZM983.201 24.9747L987.425 20.7695C987.464 20.7306 987.491 20.6816 987.504 20.6279C987.517 20.5743 987.514 20.5182 987.497 20.4658C987.48 20.4134 987.449 20.3668 987.407 20.3312C987.364 20.2955 987.314 20.2723 987.259 20.264L984.59 19.8592L985.047 19.4037C985.054 19.3972 985.062 19.3922 985.071 19.3893C985.08 19.3864 985.089 19.3856 985.099 19.387L987.796 19.7925C988.006 19.8239 988.196 19.9295 988.335 20.0898C988.473 20.2502 988.548 20.4548 988.548 20.6664V24.9741L988.036 25.482H983.413C983.355 25.4817 983.297 25.4642 983.248 25.4313C983.2 25.3985 983.162 25.352 983.139 25.2976C983.117 25.2433 983.111 25.1835 983.122 25.1258C983.134 25.0682 983.162 25.0152 983.204 24.9735L983.201 24.9747Z" fill="#222222"/>
</svg>
